<svg width="909" height="704" viewBox="0 0 909 704" fill="none" xmlns="http://www.w3.org/2000/svg">
<path d="M910 148L903.5 144.247V151.753L910 148ZM753.885 148V147.35H753.649L753.468 147.502L753.885 148ZM690.62 201V201.65H690.856L691.037 201.498L690.62 201ZM565 201L571.5 204.753V197.247L565 201ZM904.15 147.35H753.885V148.65H904.15V147.35ZM753.468 147.502L690.203 200.502L691.037 201.498L754.303 148.498L753.468 147.502ZM690.62 200.35H570.85V201.65H690.62V200.35Z" fill="url(#paint0_linear_220_274)"/>
<path d="M910.5 196L904 192.247V199.753L910.5 196ZM838 196L844.5 199.753V192.247L838 196ZM904.65 195.35H843.85V196.65H904.65V195.35Z" fill="url(#paint1_linear_220_274)"/>
<path d="M915 241L908.5 237.247V244.753L915 241ZM784 241V240.35H783.764L783.583 240.501L784 241ZM747.5 271.5L754.894 270.212L750.081 264.452L747.5 271.5ZM909.15 240.35H784V241.65H909.15V240.35ZM783.583 240.501L751.572 267.25L752.406 268.248L784.417 241.499L783.583 240.501Z" fill="url(#paint2_linear_220_274)"/>
<path d="M907.5 177L901 173.247V180.753L907.5 177ZM771 177V176.35H770.719L770.527 176.554L771 177ZM698.5 254L705.688 251.84L700.224 246.695L698.5 254ZM901.65 176.35H771V177.65H901.65V176.35ZM770.527 176.554L702.037 249.295L702.983 250.186L771.473 177.446L770.527 176.554Z" fill="url(#paint3_linear_220_274)"/>
<path d="M906 78.5L899.5 74.7472V82.2528L906 78.5ZM692.5 78.5V77.85H692.234L692.044 78.0368L692.5 78.5ZM660.5 110L660.044 109.537L659.85 109.728V110H660.5ZM660.5 191.5L664.253 185H656.747L660.5 191.5ZM900.15 77.85H692.5V79.15H900.15V77.85ZM692.044 78.0368L660.044 109.537L660.956 110.463L692.956 78.9632L692.044 78.0368ZM659.85 110V185.65H661.15V110H659.85Z" fill="url(#paint4_linear_220_274)"/>
<path d="M888.5 0L884.747 6.5H892.253L888.5 0ZM888.5 33.5L888.96 33.9596L889.15 33.7692V33.5H888.5ZM859.5 62.5V63.15H859.769L859.96 62.9596L859.5 62.5ZM701.5 62.5L708 66.2528V58.7472L701.5 62.5ZM887.85 5.85V33.5H889.15V5.85H887.85ZM888.04 33.0404L859.04 62.0404L859.96 62.9596L888.96 33.9596L888.04 33.0404ZM859.5 61.85H707.35V63.15H859.5V61.85Z" fill="url(#paint5_linear_220_274)"/>
<path d="M794 18.5L787.5 14.7472V22.2528L794 18.5ZM641.5 18.5V17.85H641.236L641.047 18.034L641.5 18.5ZM605.5 53.5L605.047 53.034L604.85 53.2254V53.5H605.5ZM605.5 145L609.253 138.5H601.747L605.5 145ZM788.15 17.85H641.5V19.15H788.15V17.85ZM641.047 18.034L605.047 53.034L605.953 53.966L641.953 18.966L641.047 18.034ZM604.85 53.5V139.15H606.15V53.5H604.85Z" fill="url(#paint6_linear_220_274)"/>
<path d="M904.5 126L898 122.247V129.753L904.5 126ZM765 126L771.5 129.753V122.247L765 126ZM898.65 125.35H770.85V126.65H898.65V125.35Z" fill="url(#paint7_linear_220_274)"/>
<path d="M739 98.5L731.539 99.3176L735.978 105.37L739 98.5ZM701.5 126L701.116 125.476L700.85 125.671V126H701.5ZM701.5 164L705.253 157.5H697.747L701.5 164ZM733.898 101.435L701.116 125.476L701.884 126.524L734.667 102.484L733.898 101.435ZM700.85 126V158.15H702.15V126H700.85Z" fill="url(#paint8_linear_220_274)"/>
<path d="M884.5 222L878 218.247V225.753L884.5 222ZM816 222L815.526 222.445L815.719 222.65H816V222ZM793 197.5L793.474 197.055L793.281 196.85H793V197.5ZM768 197.5L774.5 201.253V193.747L768 197.5ZM878.65 221.35H816V222.65H878.65V221.35ZM816.474 221.555L793.474 197.055L792.526 197.945L815.526 222.445L816.474 221.555ZM793 196.85H773.85V198.15H793V196.85Z" fill="url(#paint9_linear_220_274)"/>
<path d="M853.5 34.5L847 30.7472V38.2528L853.5 34.5ZM663.5 34.5V33.85H663.203L663.008 34.075L663.5 34.5ZM628.5 75L628.008 74.575L627.85 74.7581V75H628.5ZM628.5 103L632.253 96.5H624.747L628.5 103ZM847.65 33.85H663.5V35.15H847.65V33.85ZM663.008 34.075L628.008 74.575L628.992 75.425L663.992 34.925L663.008 34.075ZM627.85 75V97.15H629.15V75H627.85Z" fill="url(#paint10_linear_220_274)"/>
<path d="M760 580.5L755 577.613V583.387L760 580.5ZM628.5 580.5V580H628.318L628.179 580.117L628.5 580.5ZM585 617V617.5H585.182L585.321 617.383L585 617ZM549.5 617L554.5 619.887V614.113L549.5 617ZM755.5 580H628.5V581H755.5V580ZM628.179 580.117L584.679 616.617L585.321 617.383L628.821 580.883L628.179 580.117ZM585 616.5H554V617.5H585V616.5Z" fill="url(#paint11_linear_220_274)"/>
<path d="M565.5 494L560.5 491.113V496.887L565.5 494ZM507 494L506.608 494.311L506.759 494.5H507V494ZM480 460L480.392 459.689L480.241 459.5H480V460ZM452 460L457 462.887V457.113L452 460ZM561 493.5H507V494.5H561V493.5ZM507.392 493.689L480.392 459.689L479.608 460.311L506.608 494.311L507.392 493.689ZM480 459.5H456.5V460.5H480V459.5Z" fill="url(#paint12_linear_220_274)"/>
<path d="M787 677L782 674.113V679.887L787 677ZM706.5 677L706.119 677.324L706.269 677.5H706.5V677ZM683.5 650L683.881 649.676L683.731 649.5H683.5V650ZM638.5 650L643.5 652.887V647.113L638.5 650ZM782.5 676.5H706.5V677.5H782.5V676.5ZM706.881 676.676L683.881 649.676L683.119 650.324L706.119 677.324L706.881 676.676ZM683.5 649.5H643V650.5H683.5V649.5Z" fill="url(#paint13_linear_220_274)"/>
<path d="M660 695.5L655 692.613V698.387L660 695.5ZM632 695.5L631.642 695.849L631.789 696H632V695.5ZM612.5 675.5L612.858 675.151L612.711 675H612.5V675.5ZM553 675.5L558 678.387V672.613L553 675.5ZM655.5 695H632V696H655.5V695ZM632.358 695.151L612.858 675.151L612.142 675.849L631.642 695.849L632.358 695.151ZM612.5 675H557.5V676H612.5V675Z" fill="url(#paint14_linear_220_274)"/>
<path d="M501 631.5L496 628.613V634.387L501 631.5ZM435 631.5V631H434.809L434.666 631.128L435 631.5ZM415.5 649L415.166 648.628L415 648.777V649H415.5ZM415.5 685L418.387 680H412.613L415.5 685ZM496.5 631H435V632H496.5V631ZM434.666 631.128L415.166 648.628L415.834 649.372L435.334 631.872L434.666 631.128ZM415 649V680.5H416V649H415Z" fill="url(#paint15_linear_220_274)"/>
<path d="M587.5 668.5L586.006 662.923L581.923 667.006L587.5 668.5ZM572.5 653.5L572.854 653.146L572.707 653H572.5V653.5ZM456.5 653.5V653H456.272L456.122 653.173L456.5 653.5ZM443.5 668.5L443.122 668.173L443 668.313V668.5H443.5ZM443.5 694L446.387 689H440.613L443.5 694ZM584.672 664.964L572.854 653.146L572.146 653.854L583.964 665.672L584.672 664.964ZM572.5 653H456.5V654H572.5V653ZM456.122 653.173L443.122 668.173L443.878 668.827L456.878 653.827L456.122 653.173ZM443 668.5V689.5H444V668.5H443Z" fill="url(#paint16_linear_220_274)"/>
<path d="M301 496L296 493.113V498.887L301 496ZM201 496L200.638 496.345L200.786 496.5H201V496ZM170.5 464L170.862 463.655L170.72 463.506L170.513 463.5L170.5 464ZM0 459.5L4.9221 462.518L5.07442 456.746L0 459.5ZM296.5 495.5H201V496.5H296.5V495.5ZM201.362 495.655L170.862 463.655L170.138 464.345L200.638 496.345L201.362 495.655ZM170.513 463.5L4.51163 459.119L4.48524 460.119L170.487 464.5L170.513 463.5Z" fill="url(#paint17_linear_220_274)"/>
<path d="M339.5 603.5L334.5 600.613V606.387L339.5 603.5ZM286 603.5V603H285.798L285.653 603.14L286 603.5ZM245.5 642.5L251.104 641.111L247.099 636.952L245.5 642.5ZM335 603H286V604H335V603ZM285.653 603.14L248.395 639.018L249.088 639.739L286.347 603.86L285.653 603.14Z" fill="url(#paint18_linear_220_274)"/>
<path d="M357 590L352 587.113V592.887L357 590ZM215 590L220 592.887V587.113L215 590ZM352.5 589.5H219.5V590.5H352.5V589.5Z" fill="url(#paint19_linear_220_274)"/>
<path d="M353.5 576.5L348.5 573.613V579.387L353.5 576.5ZM244.5 576.5L244.165 576.871L244.308 577H244.5V576.5ZM214 549L215.78 554.492L219.647 550.204L214 549ZM349 576H244.5V577H349V576ZM244.835 576.129L217.677 551.642L217.007 552.385L244.165 576.871L244.835 576.129Z" fill="url(#paint20_linear_220_274)"/>
<path d="M601.5 630L596.5 627.113V632.887L601.5 630ZM548 630L547.679 630.383L547.818 630.5H548V630ZM517 604L518.976 609.425L522.686 605.001L517 604ZM597 629.5H548V630.5H597V629.5ZM548.321 629.617L520.769 606.509L520.127 607.275L547.679 630.383L548.321 629.617Z" fill="url(#paint21_linear_220_274)"/>
<path d="M492 615L487 612.113V617.887L492 615ZM381 615V614.5H380.771L380.622 614.673L381 615ZM352.5 648V648.5H352.729L352.878 648.327L352.5 648ZM224 648L229 650.887V645.113L224 648ZM487.5 614.5H381V615.5H487.5V614.5ZM380.622 614.673L352.122 647.673L352.878 648.327L381.378 615.327L380.622 614.673ZM352.5 647.5H228.5V648.5H352.5V647.5Z" fill="url(#paint22_linear_220_274)"/>
<path d="M39 506L44 508.887V503.113L39 506ZM94.5 506L94.8578 505.651L94.7106 505.5H94.5V506ZM135.5 548L135.142 548.349L135.289 548.5H135.5V548ZM170.5 548L165.5 545.113V550.887L170.5 548ZM43.5 506.5H94.5V505.5H43.5V506.5ZM94.1422 506.349L135.142 548.349L135.858 547.651L94.8578 505.651L94.1422 506.349ZM135.5 548.5H166V547.5H135.5V548.5Z" fill="url(#paint23_linear_220_274)"/>
<path d="M245.5 515.5L240.5 512.613V518.387L245.5 515.5ZM192 515.5L191.653 515.86L191.798 516H192V515.5ZM151 476L151.347 475.64L151.202 475.5H151V476ZM120 476L125 478.887V473.113L120 476ZM241 515H192V516H241V515ZM192.347 515.14L151.347 475.64L150.653 476.36L191.653 515.86L192.347 515.14ZM151 475.5H124.5V476.5H151V475.5Z" fill="url(#paint24_linear_220_274)"/>
<path d="M463.5 492.5L458.5 489.613V495.387L463.5 492.5ZM366 492.5L365.665 492.871L365.808 493H366V492.5ZM330.5 460.5L330.835 460.129L330.692 460H330.5V460.5ZM204.5 460.5L209.5 463.387V457.613L204.5 460.5ZM459 492H366V493H459V492ZM366.335 492.129L330.835 460.129L330.165 460.871L365.665 492.871L366.335 492.129ZM330.5 460H209V461H330.5V460Z" fill="url(#paint25_linear_220_274)"/>
<path d="M472.5 562.5L467.5 559.613V565.387L472.5 562.5ZM421.5 562.5L421.12 562.825L421.269 563H421.5V562.5ZM404 542L404.38 541.675L404.231 541.5H404V542ZM275 542L280 544.887V539.113L275 542ZM468 562H421.5V563H468V562ZM421.88 562.175L404.38 541.675L403.62 542.325L421.12 562.825L421.88 562.175ZM404 541.5H279.5V542.5H404V541.5Z" fill="url(#paint26_linear_220_274)"/>
<path d="M916 647L911 644.113V649.887L916 647ZM855.496 647V646.5H855.257L855.107 646.686L855.496 647ZM811.913 701V701.5H812.152L812.302 701.314L811.913 701ZM393 701L398 703.887V698.113L393 701ZM911.5 646.5H855.496V647.5H911.5V646.5ZM855.107 646.686L811.524 700.686L812.302 701.314L855.885 647.314L855.107 646.686ZM811.913 700.5H397.5V701.5H811.913V700.5Z" fill="url(#paint27_linear_220_274)"/>
<path d="M678 412L673 409.113V414.887L678 412ZM606.848 412L606.451 412.304L606.601 412.5H606.848V412ZM580.026 377L580.423 376.696L580.273 376.5H580.026V377ZM396 377L401 379.887V374.113L396 377ZM673.5 411.5H606.848V412.5H673.5V411.5ZM607.245 411.696L580.423 376.696L579.63 377.304L606.451 412.304L607.245 411.696ZM580.026 376.5H400.5V377.5H580.026V376.5Z" fill="url(#paint28_linear_220_274)"/>
<path d="M638 336L633 333.113V338.887L638 336ZM520.831 336V335.5H520.608L520.459 335.666L520.831 336ZM502 357L507.487 355.205L503.189 351.35L502 357ZM633.5 335.5H520.831V336.5H633.5V335.5ZM520.459 335.666L504.632 353.316L505.376 353.983L521.203 336.334L520.459 335.666Z" fill="url(#paint29_linear_220_274)"/>
<path d="M878.5 405.5L873.5 402.613V408.387L878.5 405.5ZM841.5 405.5V405H841.288L841.14 405.153L841.5 405.5ZM828 419.5V420H828.212L828.36 419.847L828 419.5ZM760 419.5L765 422.387V416.613L760 419.5ZM874 405H841.5V406H874V405ZM841.14 405.153L827.64 419.153L828.36 419.847L841.86 405.847L841.14 405.153ZM828 419H764.5V420H828V419Z" fill="url(#paint30_linear_220_274)"/>
<path d="M792 469.5L787 466.613V472.387L792 469.5ZM725 469.5L724.639 469.846L724.787 470H725V469.5ZM678 420.5L678.361 420.154L678.213 420H678V420.5ZM645.5 420.5L650.5 423.387V417.613L645.5 420.5ZM787.5 469H725V470H787.5V469ZM725.361 469.154L678.361 420.154L677.639 420.846L724.639 469.846L725.361 469.154ZM678 420H650V421H678V420Z" fill="url(#paint31_linear_220_274)"/>
<path d="M675 472L670 469.113V474.887L675 472ZM580 472L579.649 472.356L579.795 472.5H580V472ZM547 439.5L547.351 439.144L547.205 439H547V439.5ZM465.5 439.5L470.5 442.387V436.613L465.5 439.5ZM670.5 471.5H580V472.5H670.5V471.5ZM580.351 471.644L547.351 439.144L546.649 439.856L579.649 472.356L580.351 471.644ZM547 439H470V440H547V439Z" fill="url(#paint32_linear_220_274)"/>
<path d="M908 387L903 384.113V389.887L908 387ZM826 387V386.5H825.778L825.629 386.665L826 387ZM812 402.5L817.494 400.724L813.209 396.855L812 402.5ZM903.5 386.5H826V387.5H903.5V386.5ZM825.629 386.665L814.645 398.825L815.387 399.496L826.371 387.335L825.629 386.665Z" fill="url(#paint33_linear_220_274)"/>
<path d="M906.5 426L901.5 423.113V428.887L906.5 426ZM866.5 426V425.5H866.273L866.124 425.671L866.5 426ZM852.5 442V442.5H852.727L852.876 442.329L852.5 442ZM739.5 442L744.5 444.887V439.113L739.5 442ZM902 425.5H866.5V426.5H902V425.5ZM866.124 425.671L852.124 441.671L852.876 442.329L866.876 426.329L866.124 425.671ZM852.5 441.5H744V442.5H852.5V441.5Z" fill="url(#paint34_linear_220_274)"/>
<path d="M720 446.5L718.764 440.86L714.498 444.75L720 446.5ZM704.5 429.5H704V429.694L704.131 429.837L704.5 429.5ZM704.5 316.5L704.126 316.168L704 316.31V316.5H704.5ZM720 299V298.5H719.775L719.626 298.668L720 299ZM769.5 299L764.5 296.113V301.887L769.5 299ZM717.338 442.838L704.869 429.163L704.131 429.837L716.599 443.512L717.338 442.838ZM705 429.5V316.5H704V429.5H705ZM704.874 316.832L720.374 299.332L719.626 298.668L704.126 316.168L704.874 316.832ZM720 299.5H765V298.5H720V299.5Z" fill="url(#paint35_linear_220_274)"/>
<path d="M905.5 584L900.5 581.113V586.887L905.5 584ZM823 584L822.712 584.409L822.841 584.5H823V584ZM775.5 550.5L775.788 550.091L775.659 550H775.5V550.5ZM634 550.5V550H633.831L633.697 550.102L634 550.5ZM590 584V584.5H590.169L590.303 584.398L590 584ZM373.5 584L378.5 586.887V581.113L373.5 584ZM901 583.5H823V584.5H901V583.5ZM823.288 583.591L775.788 550.091L775.212 550.909L822.712 584.409L823.288 583.591ZM775.5 550H634V551H775.5V550ZM633.697 550.102L589.697 583.602L590.303 584.398L634.303 550.898L633.697 550.102ZM590 583.5H378V584.5H590V583.5Z" fill="url(#paint36_linear_220_274)"/>
<path d="M887 608.5L882 605.613V611.387L887 608.5ZM853.5 608.5V608H853.321L853.182 608.114L853.5 608.5ZM791 660L796.695 659.048L793.023 654.593L791 660ZM882.5 608H853.5V609H882.5V608ZM853.182 608.114L794.155 656.752L794.791 657.524L853.818 608.886L853.182 608.114Z" fill="url(#paint37_linear_220_274)"/>
<path d="M905.5 540L900.5 537.113V542.887L905.5 540ZM844.5 540L844.166 540.372L844.309 540.5H844.5V540ZM815.5 514L815.834 513.628L815.691 513.5H815.5V514ZM705.5 514L710.5 516.887V511.113L705.5 514ZM901 539.5H844.5V540.5H901V539.5ZM844.834 539.628L815.834 513.628L815.166 514.372L844.166 540.372L844.834 539.628ZM815.5 513.5H710V514.5H815.5V513.5Z" fill="url(#paint38_linear_220_274)"/>
<path d="M779 605.5L774 602.613V608.387L779 605.5ZM652.5 605.5V605H652.24L652.09 605.213L652.5 605.5ZM628 640.5L627.59 640.213L627.5 640.342V640.5H628ZM628 681.5L630.887 676.5H625.113L628 681.5ZM774.5 605H652.5V606H774.5V605ZM652.09 605.213L627.59 640.213L628.41 640.787L652.91 605.787L652.09 605.213ZM627.5 640.5V677H628.5V640.5H627.5Z" fill="url(#paint39_linear_220_274)"/>
<path d="M721 494L716 491.113V496.887L721 494ZM596 494V493.5H595.736L595.587 493.718L596 494ZM570 532L569.587 531.718L569.5 531.845V532H570ZM570 569L572.887 564H567.113L570 569ZM716.5 493.5H596V494.5H716.5V493.5ZM595.587 493.718L569.587 531.718L570.413 532.282L596.413 494.282L595.587 493.718ZM569.5 532V564.5H570.5V532H569.5Z" fill="url(#paint40_linear_220_274)"/>
<path d="M907.5 503.5L902.5 500.613V506.387L907.5 503.5ZM855 503.5L860 506.387V500.613L855 503.5ZM903 503H859.5V504H903V503Z" fill="url(#paint41_linear_220_274)"/>
<path d="M879 449L876.113 454H881.887L879 449ZM879 485V485.5H879.5V485H879ZM691 485L696 487.887V482.113L691 485ZM878.5 453.5V485H879.5V453.5H878.5ZM879 484.5H695.5V485.5H879V484.5Z" fill="url(#paint42_linear_220_274)"/>
<path d="M907 371L902 368.113V373.887L907 371ZM841.5 371L841.184 371.387L841.322 371.5H841.5V371ZM803.5 340L803.816 339.613L803.678 339.5H803.5V340ZM722 340L727 342.887V337.113L722 340ZM902.5 370.5H841.5V371.5H902.5V370.5ZM841.816 370.613L803.816 339.613L803.184 340.387L841.184 371.387L841.816 370.613ZM803.5 339.5H726.5V340.5H803.5V339.5Z" fill="url(#paint43_linear_220_274)"/>
<path d="M908.5 598L903.5 595.113V600.887L908.5 598ZM821 598V597.5H820.769L820.619 597.676L821 598ZM795 628.5V629H795.231L795.381 628.824L795 628.5ZM672.5 628.5L677.5 631.387V625.613L672.5 628.5ZM904 597.5H821V598.5H904V597.5ZM820.619 597.676L794.619 628.176L795.381 628.824L821.381 598.324L820.619 597.676ZM795 628H677V629H795V628Z" fill="url(#paint44_linear_220_274)"/>
<path d="M907 322L902 319.113V324.887L907 322ZM867 322L866.635 322.342L866.783 322.5H867V322ZM823.5 275.5L823.865 275.158L823.717 275H823.5V275.5ZM772 275.5L777 278.387V272.613L772 275.5ZM902.5 321.5H867V322.5H902.5V321.5ZM867.365 321.658L823.865 275.158L823.135 275.842L866.635 322.342L867.365 321.658ZM823.5 275H776.5V276H823.5V275Z" fill="url(#paint45_linear_220_274)"/>
<path d="M759 257L754 254.113V259.887L759 257ZM703 257V256.5H702.782L702.633 256.66L703 257ZM658.5 305L664.016 303.296L659.782 299.371L658.5 305ZM754.5 256.5H703V257.5H754.5V256.5ZM702.633 256.66L661.193 301.36L661.926 302.04L703.367 257.34L702.633 256.66Z" fill="url(#paint46_linear_220_274)"/>
<path d="M657.5 359L654.613 364H660.387L657.5 359ZM657.5 402L660.387 397H654.613L657.5 402ZM657 363.5V397.5H658V363.5H657Z" fill="url(#paint47_linear_220_274)"/>
<path d="M801.5 385.5L796.5 382.613V388.387L801.5 385.5ZM721.5 385.5L726.5 388.387V382.613L721.5 385.5ZM797 385H726V386H797V385Z" fill="url(#paint48_linear_220_274)"/>
<path d="M550 544.393L546.341 539.927L544.303 545.329L550 544.393ZM495.937 524L496.113 523.532L496.028 523.5H495.937V524ZM228.802 524V523.5H228.655L228.532 523.579L228.802 524ZM197 544.393L196.73 543.972L196.5 544.119V544.393H197ZM197 619L199.887 614H194.113L197 619ZM545.966 542.337L496.113 523.532L495.76 524.468L545.613 543.272L545.966 542.337ZM495.937 523.5H228.802V524.5H495.937V523.5ZM228.532 523.579L196.73 543.972L197.27 544.814L229.072 524.421L228.532 523.579ZM196.5 544.393V614.5H197.5V544.393H196.5Z" fill="url(#paint49_linear_220_274)"/>
<path d="M587.5 418L584.613 423H590.387L587.5 418ZM587.5 456.5L590.387 451.5H584.613L587.5 456.5ZM587 422.5V452H588V422.5H587Z" fill="url(#paint50_linear_220_274)"/>
<path d="M554.5 418L549.5 415.113V420.887L554.5 418ZM405.5 418V417.5H405V418H405.5ZM405.5 452L405.782 452.413L406 452.264V452H405.5ZM364.5 480L370.257 479.564L367.001 474.796L364.5 480ZM550 417.5H405.5V418.5H550V417.5ZM405 418V452H406V418H405ZM405.218 451.587L367.934 477.049L368.498 477.875L405.782 452.413L405.218 451.587Z" fill="url(#paint51_linear_220_274)"/>
<path d="M382.5 676L377.5 673.113V678.887L382.5 676ZM145.5 676L145.066 676.248L145.21 676.5H145.5V676ZM123.5 637.5L123.934 637.252L123.79 637H123.5V637.5ZM87 637.5L92 640.387V634.613L87 637.5ZM378 675.5H145.5V676.5H378V675.5ZM145.934 675.752L123.934 637.252L123.066 637.748L145.066 676.248L145.934 675.752ZM123.5 637H91.5V638H123.5V637Z" fill="url(#paint52_linear_220_274)"/>
<path d="M56.5 562.5L61.5 565.387V559.613L56.5 562.5ZM137 562.5L137.43 562.245L137.284 562H137V562.5ZM190.5 652.5L190.427 646.727L185.464 649.677L190.5 652.5ZM61 563H137V562H61V563ZM136.57 562.755L187.771 648.887L188.63 648.376L137.43 562.245L136.57 562.755Z" fill="url(#paint53_linear_220_274)"/>
<path d="M38 536.08L35.1132 531.08H40.8868L38 536.08ZM38 512.13L40.8868 517.13H35.1132L38 512.13ZM37.5 531.58V516.63H38.5V531.58H37.5Z" fill="url(#paint54_linear_220_274)"/>
<path d="M698 289.135L696.754 294.773L692.495 290.875L698 289.135ZM645.177 346.857L645.546 347.195L645.398 347.357H645.177V346.857ZM571.775 346.857L576.775 343.97V349.744L571.775 346.857ZM571.775 315.236L576.775 312.349V318.122L571.775 315.236ZM630.771 315.236L631.158 315.552L631.008 315.736H630.771V315.236ZM680.85 254L679.919 259.698L675.45 256.043L680.85 254ZM695.331 292.792L645.546 347.195L644.809 346.52L694.593 292.117L695.331 292.792ZM645.177 347.357H576.275V346.357H645.177V347.357ZM576.275 314.736H630.771V315.736H576.275V314.736ZM630.384 314.919L677.614 257.167L678.388 257.8L631.158 315.552L630.384 314.919Z" fill="url(#paint55_linear_220_274)"/>
<defs>
<linearGradient id="paint0_linear_220_274" x1="565" y1="148" x2="594.334" y2="274.343" gradientUnits="userSpaceOnUse">
<stop stop-color="#F8F1FE" stop-opacity="0"/>
<stop offset="0.526042" stop-color="#F8F2FD"/>
<stop offset="1" stop-color="#F8F1FE" stop-opacity="0"/>
</linearGradient>
<linearGradient id="paint1_linear_220_274" x1="838" y1="196" x2="838.052" y2="198.511" gradientUnits="userSpaceOnUse">
<stop stop-color="#F8F1FE" stop-opacity="0"/>
<stop offset="0.526042" stop-color="#F8F2FD"/>
<stop offset="1" stop-color="#F8F1FE" stop-opacity="0"/>
</linearGradient>
<linearGradient id="paint2_linear_220_274" x1="747.5" y1="241" x2="767.103" y2="312.231" gradientUnits="userSpaceOnUse">
<stop stop-color="#F8F1FE" stop-opacity="0"/>
<stop offset="0.526042" stop-color="#F8F2FD"/>
<stop offset="1" stop-color="#F8F1FE" stop-opacity="0"/>
</linearGradient>
<linearGradient id="paint3_linear_220_274" x1="698.5" y1="177" x2="780.723" y2="324.666" gradientUnits="userSpaceOnUse">
<stop stop-color="#F8F1FE" stop-opacity="0"/>
<stop offset="0.526042" stop-color="#F8F2FD"/>
<stop offset="1" stop-color="#F8F1FE" stop-opacity="0"/>
</linearGradient>
<linearGradient id="paint4_linear_220_274" x1="660.5" y1="78.5" x2="793.586" y2="269.811" gradientUnits="userSpaceOnUse">
<stop stop-color="#F8F1FE" stop-opacity="0"/>
<stop offset="0.526042" stop-color="#F8F2FD"/>
<stop offset="1" stop-color="#F8F1FE" stop-opacity="0"/>
</linearGradient>
<linearGradient id="paint5_linear_220_274" x1="701.5" y1="0" x2="764.692" y2="125.1" gradientUnits="userSpaceOnUse">
<stop stop-color="#F8F1FE" stop-opacity="0"/>
<stop offset="0.526042" stop-color="#F8F2FD"/>
<stop offset="1" stop-color="#F8F1FE" stop-opacity="0"/>
</linearGradient>
<linearGradient id="paint6_linear_220_274" x1="605.5" y1="18.5" x2="764.389" y2="175.156" gradientUnits="userSpaceOnUse">
<stop stop-color="#F8F1FE" stop-opacity="0"/>
<stop offset="0.526042" stop-color="#F8F2FD"/>
<stop offset="1" stop-color="#F8F1FE" stop-opacity="0"/>
</linearGradient>
<linearGradient id="paint7_linear_220_274" x1="765" y1="126" x2="765.027" y2="128.512" gradientUnits="userSpaceOnUse">
<stop stop-color="#F8F1FE" stop-opacity="0"/>
<stop offset="0.526042" stop-color="#F8F2FD"/>
<stop offset="1" stop-color="#F8F1FE" stop-opacity="0"/>
</linearGradient>
<linearGradient id="paint8_linear_220_274" x1="701.5" y1="98.5" x2="756.014" y2="119.15" gradientUnits="userSpaceOnUse">
<stop stop-color="#F8F1FE" stop-opacity="0"/>
<stop offset="0.526042" stop-color="#F8F2FD"/>
<stop offset="1" stop-color="#F8F1FE" stop-opacity="0"/>
</linearGradient>
<linearGradient id="paint9_linear_220_274" x1="768" y1="197.5" x2="785.769" y2="253.405" gradientUnits="userSpaceOnUse">
<stop stop-color="#F8F1FE" stop-opacity="0"/>
<stop offset="0.526042" stop-color="#F8F2FD"/>
<stop offset="1" stop-color="#F8F1FE" stop-opacity="0"/>
</linearGradient>
<linearGradient id="paint10_linear_220_274" x1="628.5" y1="34.5" x2="693.849" y2="176.526" gradientUnits="userSpaceOnUse">
<stop stop-color="#F8F1FE" stop-opacity="0"/>
<stop offset="0.526042" stop-color="#F8F2FD"/>
<stop offset="1" stop-color="#F8F1FE" stop-opacity="0"/>
</linearGradient>
<linearGradient id="paint11_linear_220_274" x1="549.5" y1="580.5" x2="571.987" y2="666.307" gradientUnits="userSpaceOnUse">
<stop stop-color="#F8F1FE" stop-opacity="0"/>
<stop offset="0.526042" stop-color="#F8F2FD"/>
<stop offset="1" stop-color="#F8F1FE" stop-opacity="0"/>
</linearGradient>
<linearGradient id="paint12_linear_220_274" x1="452" y1="460" x2="484.094" y2="530.889" gradientUnits="userSpaceOnUse">
<stop stop-color="#F8F1FE" stop-opacity="0"/>
<stop offset="0.526042" stop-color="#F8F2FD"/>
<stop offset="1" stop-color="#F8F1FE" stop-opacity="0"/>
</linearGradient>
<linearGradient id="paint13_linear_220_274" x1="638.5" y1="650" x2="655.831" y2="713.07" gradientUnits="userSpaceOnUse">
<stop stop-color="#F8F1FE" stop-opacity="0"/>
<stop offset="0.526042" stop-color="#F8F2FD"/>
<stop offset="1" stop-color="#F8F1FE" stop-opacity="0"/>
</linearGradient>
<linearGradient id="paint14_linear_220_274" x1="553" y1="675.5" x2="566.145" y2="722.033" gradientUnits="userSpaceOnUse">
<stop stop-color="#F8F1FE" stop-opacity="0"/>
<stop offset="0.526042" stop-color="#F8F2FD"/>
<stop offset="1" stop-color="#F8F1FE" stop-opacity="0"/>
</linearGradient>
<linearGradient id="paint15_linear_220_274" x1="415.5" y1="631.5" x2="482.6" y2="702.453" gradientUnits="userSpaceOnUse">
<stop stop-color="#F8F1FE" stop-opacity="0"/>
<stop offset="0.526042" stop-color="#F8F2FD"/>
<stop offset="1" stop-color="#F8F1FE" stop-opacity="0"/>
</linearGradient>
<linearGradient id="paint16_linear_220_274" x1="443.5" y1="653.5" x2="480.132" y2="739.678" gradientUnits="userSpaceOnUse">
<stop stop-color="#F8F1FE" stop-opacity="0"/>
<stop offset="0.526042" stop-color="#F8F2FD"/>
<stop offset="1" stop-color="#F8F1FE" stop-opacity="0"/>
</linearGradient>
<linearGradient id="paint17_linear_220_274" x1="0" y1="459.5" x2="16.2598" y2="548.22" gradientUnits="userSpaceOnUse">
<stop stop-color="#F8F1FE" stop-opacity="0"/>
<stop offset="0.526042" stop-color="#F8F2FD"/>
<stop offset="1" stop-color="#F8F1FE" stop-opacity="0"/>
</linearGradient>
<linearGradient id="paint18_linear_220_274" x1="245.5" y1="603.5" x2="289.599" y2="673.828" gradientUnits="userSpaceOnUse">
<stop stop-color="#F8F1FE" stop-opacity="0"/>
<stop offset="0.526042" stop-color="#F8F2FD"/>
<stop offset="1" stop-color="#F8F1FE" stop-opacity="0"/>
</linearGradient>
<linearGradient id="paint19_linear_220_274" x1="215" y1="590" x2="215.027" y2="592.512" gradientUnits="userSpaceOnUse">
<stop stop-color="#F8F1FE" stop-opacity="0"/>
<stop offset="0.526042" stop-color="#F8F2FD"/>
<stop offset="1" stop-color="#F8F1FE" stop-opacity="0"/>
</linearGradient>
<linearGradient id="paint20_linear_220_274" x1="214" y1="549" x2="232.906" y2="612.456" gradientUnits="userSpaceOnUse">
<stop stop-color="#F8F1FE" stop-opacity="0"/>
<stop offset="0.526042" stop-color="#F8F2FD"/>
<stop offset="1" stop-color="#F8F1FE" stop-opacity="0"/>
</linearGradient>
<linearGradient id="paint21_linear_220_274" x1="517" y1="604" x2="541.975" y2="657.706" gradientUnits="userSpaceOnUse">
<stop stop-color="#F8F1FE" stop-opacity="0"/>
<stop offset="0.526042" stop-color="#F8F2FD"/>
<stop offset="1" stop-color="#F8F1FE" stop-opacity="0"/>
</linearGradient>
<linearGradient id="paint22_linear_220_274" x1="224" y1="615" x2="238.912" y2="695.132" gradientUnits="userSpaceOnUse">
<stop stop-color="#F8F1FE" stop-opacity="0"/>
<stop offset="0.526042" stop-color="#F8F2FD"/>
<stop offset="1" stop-color="#F8F1FE" stop-opacity="0"/>
</linearGradient>
<linearGradient id="paint23_linear_220_274" x1="39" y1="506" x2="80.3093" y2="591.577" gradientUnits="userSpaceOnUse">
<stop stop-color="#F8F1FE" stop-opacity="0"/>
<stop offset="0.526042" stop-color="#F8F2FD"/>
<stop offset="1" stop-color="#F8F1FE" stop-opacity="0"/>
</linearGradient>
<linearGradient id="paint24_linear_220_274" x1="120" y1="476" x2="158.495" y2="556.925" gradientUnits="userSpaceOnUse">
<stop stop-color="#F8F1FE" stop-opacity="0"/>
<stop offset="0.526042" stop-color="#F8F2FD"/>
<stop offset="1" stop-color="#F8F1FE" stop-opacity="0"/>
</linearGradient>
<linearGradient id="paint25_linear_220_274" x1="204.5" y1="460.5" x2="219.006" y2="538.186" gradientUnits="userSpaceOnUse">
<stop stop-color="#F8F1FE" stop-opacity="0"/>
<stop offset="0.526042" stop-color="#F8F2FD"/>
<stop offset="1" stop-color="#F8F1FE" stop-opacity="0"/>
</linearGradient>
<linearGradient id="paint26_linear_220_274" x1="275" y1="542" x2="282.885" y2="592.266" gradientUnits="userSpaceOnUse">
<stop stop-color="#F8F1FE" stop-opacity="0"/>
<stop offset="0.526042" stop-color="#F8F2FD"/>
<stop offset="1" stop-color="#F8F1FE" stop-opacity="0"/>
</linearGradient>
<linearGradient id="paint27_linear_220_274" x1="393" y1="647" x2="413.667" y2="779.441" gradientUnits="userSpaceOnUse">
<stop stop-color="#F8F1FE" stop-opacity="0"/>
<stop offset="0.526042" stop-color="#F8F2FD"/>
<stop offset="1" stop-color="#F8F1FE" stop-opacity="0"/>
</linearGradient>
<linearGradient id="paint28_linear_220_274" x1="396" y1="377" x2="411.934" y2="461.943" gradientUnits="userSpaceOnUse">
<stop stop-color="#F8F1FE" stop-opacity="0"/>
<stop offset="0.526042" stop-color="#F8F2FD"/>
<stop offset="1" stop-color="#F8F1FE" stop-opacity="0"/>
</linearGradient>
<linearGradient id="paint29_linear_220_274" x1="502" y1="336" x2="513.676" y2="386.034" gradientUnits="userSpaceOnUse">
<stop stop-color="#F8F1FE" stop-opacity="0"/>
<stop offset="0.526042" stop-color="#F8F2FD"/>
<stop offset="1" stop-color="#F8F1FE" stop-opacity="0"/>
</linearGradient>
<linearGradient id="paint30_linear_220_274" x1="760" y1="405.5" x2="766.086" y2="439.586" gradientUnits="userSpaceOnUse">
<stop stop-color="#F8F1FE" stop-opacity="0"/>
<stop offset="0.526042" stop-color="#F8F2FD"/>
<stop offset="1" stop-color="#F8F1FE" stop-opacity="0"/>
</linearGradient>
<linearGradient id="paint31_linear_220_274" x1="645.5" y1="420.5" x2="695.064" y2="518.549" gradientUnits="userSpaceOnUse">
<stop stop-color="#F8F1FE" stop-opacity="0"/>
<stop offset="0.526042" stop-color="#F8F2FD"/>
<stop offset="1" stop-color="#F8F1FE" stop-opacity="0"/>
</linearGradient>
<linearGradient id="paint32_linear_220_274" x1="465.5" y1="439.5" x2="483.646" y2="516.896" gradientUnits="userSpaceOnUse">
<stop stop-color="#F8F1FE" stop-opacity="0"/>
<stop offset="0.526042" stop-color="#F8F2FD"/>
<stop offset="1" stop-color="#F8F1FE" stop-opacity="0"/>
</linearGradient>
<linearGradient id="paint33_linear_220_274" x1="812" y1="387" x2="820.968" y2="423.753" gradientUnits="userSpaceOnUse">
<stop stop-color="#F8F1FE" stop-opacity="0"/>
<stop offset="0.526042" stop-color="#F8F2FD"/>
<stop offset="1" stop-color="#F8F1FE" stop-opacity="0"/>
</linearGradient>
<linearGradient id="paint34_linear_220_274" x1="739.5" y1="426" x2="745.201" y2="465.372" gradientUnits="userSpaceOnUse">
<stop stop-color="#F8F1FE" stop-opacity="0"/>
<stop offset="0.526042" stop-color="#F8F2FD"/>
<stop offset="1" stop-color="#F8F1FE" stop-opacity="0"/>
</linearGradient>
<linearGradient id="paint35_linear_220_274" x1="704.5" y1="299" x2="804.083" y2="328.036" gradientUnits="userSpaceOnUse">
<stop stop-color="#F8F1FE" stop-opacity="0"/>
<stop offset="0.526042" stop-color="#F8F2FD"/>
<stop offset="1" stop-color="#F8F1FE" stop-opacity="0"/>
</linearGradient>
<linearGradient id="paint36_linear_220_274" x1="373.5" y1="550.5" x2="381.438" y2="633.908" gradientUnits="userSpaceOnUse">
<stop stop-color="#F8F1FE" stop-opacity="0"/>
<stop offset="0.526042" stop-color="#F8F2FD"/>
<stop offset="1" stop-color="#F8F1FE" stop-opacity="0"/>
</linearGradient>
<linearGradient id="paint37_linear_220_274" x1="791" y1="608.5" x2="854.295" y2="686.567" gradientUnits="userSpaceOnUse">
<stop stop-color="#F8F1FE" stop-opacity="0"/>
<stop offset="0.526042" stop-color="#F8F2FD"/>
<stop offset="1" stop-color="#F8F1FE" stop-opacity="0"/>
</linearGradient>
<linearGradient id="paint38_linear_220_274" x1="705.5" y1="514" x2="717.857" y2="576.893" gradientUnits="userSpaceOnUse">
<stop stop-color="#F8F1FE" stop-opacity="0"/>
<stop offset="0.526042" stop-color="#F8F2FD"/>
<stop offset="1" stop-color="#F8F1FE" stop-opacity="0"/>
</linearGradient>
<linearGradient id="paint39_linear_220_274" x1="628" y1="605.5" x2="720.005" y2="726.451" gradientUnits="userSpaceOnUse">
<stop stop-color="#F8F1FE" stop-opacity="0"/>
<stop offset="0.526042" stop-color="#F8F2FD"/>
<stop offset="1" stop-color="#F8F1FE" stop-opacity="0"/>
</linearGradient>
<linearGradient id="paint40_linear_220_274" x1="570" y1="494" x2="660.467" y2="614.514" gradientUnits="userSpaceOnUse">
<stop stop-color="#F8F1FE" stop-opacity="0"/>
<stop offset="0.526042" stop-color="#F8F2FD"/>
<stop offset="1" stop-color="#F8F1FE" stop-opacity="0"/>
</linearGradient>
<linearGradient id="paint41_linear_220_274" x1="855" y1="503.5" x2="855.072" y2="506.01" gradientUnits="userSpaceOnUse">
<stop stop-color="#F8F1FE" stop-opacity="0"/>
<stop offset="0.526042" stop-color="#F8F2FD"/>
<stop offset="1" stop-color="#F8F1FE" stop-opacity="0"/>
</linearGradient>
<linearGradient id="paint42_linear_220_274" x1="691" y1="449" x2="715.152" y2="532.454" gradientUnits="userSpaceOnUse">
<stop stop-color="#F8F1FE" stop-opacity="0"/>
<stop offset="0.526042" stop-color="#F8F2FD"/>
<stop offset="1" stop-color="#F8F1FE" stop-opacity="0"/>
</linearGradient>
<linearGradient id="paint43_linear_220_274" x1="722" y1="340" x2="740.535" y2="413.188" gradientUnits="userSpaceOnUse">
<stop stop-color="#F8F1FE" stop-opacity="0"/>
<stop offset="0.526042" stop-color="#F8F2FD"/>
<stop offset="1" stop-color="#F8F1FE" stop-opacity="0"/>
</linearGradient>
<linearGradient id="paint44_linear_220_274" x1="672.5" y1="598" x2="686.917" y2="671.81" gradientUnits="userSpaceOnUse">
<stop stop-color="#F8F1FE" stop-opacity="0"/>
<stop offset="0.526042" stop-color="#F8F2FD"/>
<stop offset="1" stop-color="#F8F1FE" stop-opacity="0"/>
</linearGradient>
<linearGradient id="paint45_linear_220_274" x1="772" y1="275.5" x2="819.849" y2="367.414" gradientUnits="userSpaceOnUse">
<stop stop-color="#F8F1FE" stop-opacity="0"/>
<stop offset="0.526042" stop-color="#F8F2FD"/>
<stop offset="1" stop-color="#F8F1FE" stop-opacity="0"/>
</linearGradient>
<linearGradient id="paint46_linear_220_274" x1="658.5" y1="257" x2="715.729" y2="336.282" gradientUnits="userSpaceOnUse">
<stop stop-color="#F8F1FE" stop-opacity="0"/>
<stop offset="0.526042" stop-color="#F8F2FD"/>
<stop offset="1" stop-color="#F8F1FE" stop-opacity="0"/>
</linearGradient>
<linearGradient id="paint47_linear_220_274" x1="657.5" y1="359" x2="659.162" y2="359.026" gradientUnits="userSpaceOnUse">
<stop stop-color="#F8F1FE" stop-opacity="0"/>
<stop offset="0.526042" stop-color="#F8F2FD"/>
<stop offset="1" stop-color="#F8F1FE" stop-opacity="0"/>
</linearGradient>
<linearGradient id="paint48_linear_220_274" x1="721.5" y1="385.5" x2="721.547" y2="388.011" gradientUnits="userSpaceOnUse">
<stop stop-color="#F8F1FE" stop-opacity="0"/>
<stop offset="0.526042" stop-color="#F8F2FD"/>
<stop offset="1" stop-color="#F8F1FE" stop-opacity="0"/>
</linearGradient>
<linearGradient id="paint49_linear_220_274" x1="197" y1="524" x2="280.297" y2="728.791" gradientUnits="userSpaceOnUse">
<stop stop-color="#F8F1FE" stop-opacity="0"/>
<stop offset="0.526042" stop-color="#F8F2FD"/>
<stop offset="1" stop-color="#F8F1FE" stop-opacity="0"/>
</linearGradient>
<linearGradient id="paint50_linear_220_274" x1="587.5" y1="418" x2="589.162" y2="418.029" gradientUnits="userSpaceOnUse">
<stop stop-color="#F8F1FE" stop-opacity="0"/>
<stop offset="0.526042" stop-color="#F8F2FD"/>
<stop offset="1" stop-color="#F8F1FE" stop-opacity="0"/>
</linearGradient>
<linearGradient id="paint51_linear_220_274" x1="364.5" y1="418" x2="426.291" y2="543.291" gradientUnits="userSpaceOnUse">
<stop stop-color="#F8F1FE" stop-opacity="0"/>
<stop offset="0.526042" stop-color="#F8F2FD"/>
<stop offset="1" stop-color="#F8F1FE" stop-opacity="0"/>
</linearGradient>
<linearGradient id="paint52_linear_220_274" x1="87" y1="637.5" x2="105.335" y2="730.614" gradientUnits="userSpaceOnUse">
<stop stop-color="#F8F1FE" stop-opacity="0"/>
<stop offset="0.526042" stop-color="#F8F2FD"/>
<stop offset="1" stop-color="#F8F1FE" stop-opacity="0"/>
</linearGradient>
<linearGradient id="paint53_linear_220_274" x1="56.5" y1="562.5" x2="169.542" y2="673.862" gradientUnits="userSpaceOnUse">
<stop stop-color="#F8F1FE" stop-opacity="0"/>
<stop offset="0.526042" stop-color="#F8F2FD"/>
<stop offset="1" stop-color="#F8F1FE" stop-opacity="0"/>
</linearGradient>
<linearGradient id="paint54_linear_220_274" x1="38" y1="512.13" x2="36.339" y2="512.176" gradientUnits="userSpaceOnUse">
<stop stop-color="#F8F1FE" stop-opacity="0"/>
<stop offset="0.526042" stop-color="#F8F2FD"/>
<stop offset="1" stop-color="#F8F1FE" stop-opacity="0"/>
</linearGradient>
<linearGradient id="paint55_linear_220_274" x1="698" y1="254" x2="582.008" y2="358.326" gradientUnits="userSpaceOnUse">
<stop stop-color="#F8F1FE" stop-opacity="0"/>
<stop offset="0.526042" stop-color="#F8F2FD"/>
<stop offset="1" stop-color="#F8F1FE" stop-opacity="0"/>
</linearGradient>
</defs>
</svg>
