<svg width="1089" height="890" viewBox="0 0 1089 890" fill="none" xmlns="http://www.w3.org/2000/svg">
<path d="M-15.3288 187.27L-8.82877 183.517V191.022L-15.3288 187.27ZM192.68 187.27V186.62H192.951L193.141 186.811L192.68 187.27ZM276.976 272.047V272.697H276.705L276.515 272.505L276.976 272.047ZM444.354 272.047L437.854 275.8V268.294L444.354 272.047ZM-9.47879 186.62H192.68V187.92H-9.47879V186.62ZM193.141 186.811L277.437 271.589L276.515 272.505L192.22 187.728L193.141 186.811ZM276.976 271.397H438.504V272.697H276.976V271.397Z" fill="url(#paint0_linear_176_197)" fill-opacity="0.3"/>
<path d="M-15.3285 248.006L-8.82848 244.253V251.759L-15.3285 248.006ZM72.6055 248.006L66.1055 251.759V244.253L72.6055 248.006ZM-9.47848 247.356H66.7555V248.656H-9.47848V247.356Z" fill="url(#paint1_linear_176_197)" fill-opacity="0.3"/>
<path d="M-20.7867 304.946L-14.2867 301.193V308.699L-20.7867 304.946ZM138.101 304.946V304.296H138.344L138.528 304.456L138.101 304.946ZM182.371 343.539L175.005 342.096L179.937 336.438L182.371 343.539ZM-14.9366 304.296H138.101V305.596H-14.9366V304.296ZM138.528 304.456L178.389 339.204L177.534 340.184L137.674 305.436L138.528 304.456Z" fill="url(#paint2_linear_176_197)" fill-opacity="0.3"/>
<path d="M313.362 235.985L319.862 232.232V239.738L313.362 235.985ZM421.915 235.985V235.335H422.188L422.38 235.53L421.915 235.985ZM543.203 359.988L535.975 357.965L541.341 352.717L543.203 359.988ZM319.212 235.335H421.915V236.635H319.212V235.335ZM422.38 235.53L539.577 355.351L538.648 356.26L421.45 236.439L422.38 235.53Z" fill="url(#paint3_linear_176_197)" fill-opacity="0.3"/>
<path d="M-11.6916 223.964L-5.19156 220.212V227.717L-11.6916 223.964ZM153.867 223.964V223.314H154.156L154.349 223.529L153.867 223.964ZM241.801 321.395L234.66 319.084L240.232 314.055L241.801 321.395ZM-5.84157 223.314H153.867V224.614H-5.84157V223.314ZM154.349 223.529L238.364 316.617L237.399 317.488L153.384 224.4L154.349 223.529Z" fill="url(#paint4_linear_176_197)" fill-opacity="0.3"/>
<path d="M-9.87192 99.3289L-3.37192 95.5761V103.082L-9.87192 99.3289ZM249.078 99.3289V98.6789H249.353L249.544 98.8754L249.078 99.3289ZM287.891 139.187L288.356 138.733L288.541 138.923V139.187H287.891ZM287.891 242.312L284.138 235.812H291.643L287.891 242.312ZM-4.02191 98.6789H249.078V99.9789H-4.02191V98.6789ZM249.544 98.8754L288.356 138.733L287.425 139.64L248.613 99.7823L249.544 98.8754ZM288.541 139.187V236.462H287.241V139.187H288.541Z" fill="url(#paint5_linear_176_197)" fill-opacity="0.3"/>
<path d="M11.3551 0L15.1079 6.5H7.60233L11.3551 0ZM11.3551 42.3887L10.8858 42.8385L10.7051 42.6499V42.3887H11.3551ZM46.5287 79.0835V79.7335H46.2513L46.0594 79.5332L46.5287 79.0835ZM238.164 79.0835L231.664 82.8362V75.3307L238.164 79.0835ZM12.0051 5.85V42.3887H10.7051V5.85H12.0051ZM11.8243 41.9389L46.9979 78.6337L46.0594 79.5332L10.8858 42.8385L11.8243 41.9389ZM46.5287 78.4334H232.314V79.7335H46.5287V78.4334Z" fill="url(#paint6_linear_176_197)" fill-opacity="0.3"/>
<path d="M125.971 23.4087L132.471 19.6559V27.1615L125.971 23.4087ZM310.936 23.4087V22.7587H311.208L311.399 22.9523L310.936 23.4087ZM354.6 67.6954L355.062 67.2391L355.25 67.4289V67.6954H354.6ZM354.6 183.474L350.847 176.974H358.352L354.6 183.474ZM131.821 22.7587H310.936V24.0587H131.821V22.7587ZM311.399 22.9523L355.062 67.2391L354.137 68.1518L310.473 23.865L311.399 22.9523ZM355.25 67.6954V177.624H353.95V67.6954H355.25Z" fill="url(#paint7_linear_176_197)" fill-opacity="0.3"/>
<path d="M-8.05254 159.432L-1.55254 155.679V163.185L-8.05254 159.432ZM161.145 159.432L154.645 163.185V155.679L161.145 159.432ZM-2.20253 158.782H155.295V160.082H-2.20253V158.782Z" fill="url(#paint8_linear_176_197)" fill-opacity="0.3"/>
<path d="M192.681 124.635L200.124 125.604L195.563 131.566L192.681 124.635ZM238.164 159.432L238.559 158.916L238.814 159.111V159.432H238.164ZM238.164 207.515L234.411 201.015H241.917L238.164 207.515ZM197.722 127.674L238.559 158.916L237.769 159.948L196.932 128.706L197.722 127.674ZM238.814 159.432V201.665H237.514V159.432H238.814Z" fill="url(#paint9_linear_176_197)" fill-opacity="0.3"/>
<path d="M16.2051 280.904L22.7051 277.152V284.657L16.2051 280.904ZM99.2875 280.904L99.7707 281.339L99.577 281.554H99.2875V280.904ZM127.184 249.904L126.701 249.469L126.894 249.254H127.184V249.904ZM157.506 249.904L151.006 253.656V246.151L157.506 249.904ZM22.0551 280.254H99.2875V281.554H22.0551V280.254ZM98.8043 280.47L126.701 249.469L127.667 250.338L99.7707 281.339L98.8043 280.47ZM127.184 249.254H151.656V250.554H127.184V249.254Z" fill="url(#paint10_linear_176_197)" fill-opacity="0.3"/>
<path d="M353.993 212.576L360.493 208.824V216.329L353.993 212.576ZM455.875 212.576V211.926H456.176L456.371 212.155L455.875 212.576ZM526.829 296.088V296.738H526.528L526.334 296.509L526.829 296.088ZM657.214 296.088L650.714 299.841V292.336L657.214 296.088ZM359.843 211.926H455.875V213.226H359.843V211.926ZM456.371 212.155L527.324 295.668L526.334 296.509L455.38 212.997L456.371 212.155ZM526.829 295.438H651.364V296.738H526.829V295.438Z" fill="url(#paint11_linear_176_197)" fill-opacity="0.3"/>
<path d="M53.8056 43.6541L60.3056 39.9013V47.4068L53.8056 43.6541ZM284.253 43.6541V43.0041H284.559L284.754 43.2394L284.253 43.6541ZM326.704 94.9001L327.205 94.4855L327.354 94.6659V94.9001H326.704ZM326.704 130.33L322.951 123.83H330.457L326.704 130.33ZM59.6556 43.0041H284.253V44.3041H59.6556V43.0041ZM284.754 43.2394L327.205 94.4855L326.204 95.3148L283.753 44.0687L284.754 43.2394ZM327.354 94.9001V124.48H326.054V94.9001H327.354Z" fill="url(#paint12_linear_176_197)" fill-opacity="0.3"/>
<path d="M167.21 734.527L172.21 731.64V737.414L167.21 734.527ZM326.704 734.527V734.027H326.892L327.033 734.151L326.704 734.527ZM379.464 780.712V781.212H379.276L379.135 781.088L379.464 780.712ZM422.521 780.712L417.521 783.599V777.825L422.521 780.712ZM171.71 734.027H326.704V735.027H171.71V734.027ZM327.033 734.151L379.794 780.336L379.135 781.088L326.374 734.903L327.033 734.151ZM379.464 780.212H418.021V781.212H379.464V780.212Z" fill="url(#paint13_linear_176_197)" fill-opacity="0.3"/>
<path d="M403.115 625.076L408.115 622.189V627.962L403.115 625.076ZM474.069 625.076L474.467 625.378L474.317 625.576H474.069V625.076ZM506.817 582.054L506.419 581.751L506.569 581.554H506.817V582.054ZM540.777 582.054L535.777 584.941V579.167L540.777 582.054ZM407.615 624.576H474.069V625.576H407.615V624.576ZM473.671 624.773L506.419 581.751L507.214 582.357L474.467 625.378L473.671 624.773ZM506.817 581.554H536.277V582.554H506.817V581.554Z" fill="url(#paint14_linear_176_197)" fill-opacity="0.3"/>
<path d="M134.462 856.632L139.462 853.745V859.519L134.462 856.632ZM232.099 856.632L232.487 856.948L232.336 857.132H232.099V856.632ZM259.996 822.468L259.608 822.152L259.758 821.968H259.996V822.468ZM314.575 822.468L309.575 825.355V819.581L314.575 822.468ZM138.962 856.132H232.099V857.132H138.962V856.132ZM231.712 856.316L259.608 822.152L260.383 822.784L232.487 856.948L231.712 856.316ZM259.996 821.968H310.075V822.968H259.996V821.968Z" fill="url(#paint15_linear_176_197)" fill-opacity="0.3"/>
<path d="M288.498 880.041L293.498 877.154V882.927L288.498 880.041ZM322.459 880.041L322.824 880.382L322.676 880.541H322.459V880.041ZM346.11 854.734L345.745 854.392L345.893 854.234H346.11V854.734ZM418.276 854.734L413.276 857.621V851.847L418.276 854.734ZM292.998 879.541H322.459V880.541H292.998V879.541ZM322.093 879.699L345.745 854.392L346.475 855.075L322.824 880.382L322.093 879.699ZM346.11 854.234H413.776V855.234H346.11V854.234Z" fill="url(#paint16_linear_176_197)" fill-opacity="0.3"/>
<path d="M481.346 799.059L486.346 796.172V801.946L481.346 799.059ZM561.397 799.059V798.559H561.594L561.738 798.694L561.397 799.059ZM585.048 821.202L585.39 820.837L585.548 820.986V821.202H585.048ZM585.048 866.755L582.161 861.755H587.935L585.048 866.755ZM485.846 798.559H561.397V799.559H485.846V798.559ZM561.738 798.694L585.39 820.837L584.706 821.567L561.055 799.424L561.738 798.694ZM585.548 821.202V862.255H584.548V821.202H585.548Z" fill="url(#paint17_linear_176_197)" fill-opacity="0.3"/>
<path d="M723.923 627.606L728.923 624.72V630.493L723.923 627.606ZM845.211 627.606L845.58 627.944L845.431 628.106H845.211V627.606ZM882.204 587.116L881.834 586.778L881.978 586.622L882.19 586.616L882.204 587.116ZM1089 581.422L1084.08 584.445L1083.92 578.674L1089 581.422ZM728.423 627.106H845.211V628.106H728.423V627.106ZM844.842 627.269L881.834 586.778L882.573 587.453L845.58 627.944L844.842 627.269ZM882.19 586.616L1084.49 581.046L1084.52 582.045L882.217 587.615L882.19 586.616Z" fill="url(#paint18_linear_176_197)" fill-opacity="0.3"/>
<path d="M492.262 778.181L497.262 775.294V781.068L492.262 778.181ZM626.892 778.181V777.681H627.127L627.277 777.862L626.892 778.181ZM661.459 819.937V820.437H661.224L661.074 820.256L661.459 819.937ZM817.314 819.937L812.314 822.824V817.05L817.314 819.937ZM496.762 777.681H626.892V778.681H496.762V777.681ZM627.277 777.862L661.844 819.618L661.074 820.256L626.507 778.5L627.277 777.862ZM661.459 819.437H812.814V820.437H661.459V819.437Z" fill="url(#paint19_linear_176_197)" fill-opacity="0.3"/>
<path d="M807.612 406.805L812.612 403.919V409.692L807.612 406.805ZM840.966 406.805V406.305H841.18L841.327 406.459L840.966 406.805ZM855.521 421.989V422.489H855.307L855.16 422.335L855.521 421.989ZM890.088 421.989L885.088 424.876V419.103L890.088 421.989ZM812.112 406.305H840.966V407.305H812.112V406.305ZM841.327 406.459L855.882 421.643L855.16 422.335L840.605 407.151L841.327 406.459ZM855.521 421.489H885.588V422.489H855.521V421.489Z" fill="url(#paint20_linear_176_197)" fill-opacity="0.3"/>
<path d="M809.431 452.357L814.431 449.471V455.244L809.431 452.357ZM840.966 452.357L841.285 452.742L841.146 452.857H840.966V452.357ZM861.585 435.275L861.266 434.89L861.405 434.775H861.585V435.275ZM891.301 435.275L886.301 438.162V432.389L891.301 435.275ZM813.931 451.857H840.966V452.857H813.931V451.857ZM840.647 451.972L861.266 434.89L861.904 435.66L841.285 452.742L840.647 451.972ZM861.585 434.775H886.801V435.775H861.585V434.775Z" fill="url(#paint21_linear_176_197)" fill-opacity="0.3"/>
<path d="M1041.7 640.26L1036.7 643.146V637.373L1041.7 640.26ZM974.382 640.26L974.017 639.918L974.165 639.76H974.382V640.26ZM924.654 693.404L925.019 693.745L924.871 693.904H924.654V693.404ZM882.203 693.404L887.203 690.517V696.29L882.203 693.404ZM1037.2 640.76H974.382V639.76H1037.2V640.76ZM974.747 640.601L925.019 693.745L924.289 693.062L974.017 639.918L974.747 640.601ZM924.654 693.904H886.703V692.904H924.654V693.904Z" fill="url(#paint22_linear_176_197)" fill-opacity="0.3"/>
<path d="M791.237 652.28L796.237 649.394V655.167L791.237 652.28ZM856.127 652.28L856.481 652.633L856.334 652.78H856.127V652.28ZM905.855 602.3L905.5 601.947L905.647 601.8H905.855V602.3ZM943.454 602.3L938.454 605.186V599.413L943.454 602.3ZM795.737 651.78H856.127V652.78H795.737V651.78ZM855.772 651.928L905.5 601.947L906.209 602.652L856.481 652.633L855.772 651.928ZM905.855 601.8H938.954V602.8H905.855V601.8Z" fill="url(#paint23_linear_176_197)" fill-opacity="0.3"/>
<path d="M734.838 508.032L740.425 509.488L736.371 513.598L734.838 508.032ZM768.193 540.931V541.431H767.987L767.841 541.287L768.193 540.931ZM1028.36 540.931L1028.69 541.302L1028.55 541.431H1028.36V540.931ZM1064.74 508.032L1062.97 513.527L1059.1 509.244L1064.74 508.032ZM738.393 510.836L768.544 540.575L767.841 541.287L737.691 511.548L738.393 510.836ZM768.193 540.431H1028.36V541.431H768.193V540.431ZM1028.02 540.56L1061.07 510.679L1061.74 511.421L1028.69 541.302L1028.02 540.56Z" fill="url(#paint24_linear_176_197)" fill-opacity="0.3"/>
<path d="M659.64 493.481L664.64 490.594V496.368L659.64 493.481ZM943.094 493.481L943.42 493.86L943.28 493.981H943.094V493.481ZM1000.46 444.133L998.552 449.582L994.787 445.205L1000.46 444.133ZM664.14 492.981H943.094V493.981H664.14V492.981ZM942.768 493.102L996.722 446.688L997.375 447.446L943.42 493.86L942.768 493.102Z" fill="url(#paint25_linear_176_197)" fill-opacity="0.3"/>
<path d="M654.788 539.033L659.788 536.146V541.92L654.788 539.033ZM693.6 539.033V538.533H693.825L693.974 538.7L693.6 539.033ZM717.251 565.605V566.105H717.027L716.878 565.937L717.251 565.605ZM786.992 565.605L781.992 568.492V562.718L786.992 565.605ZM659.288 538.533H693.6V539.533H659.288V538.533ZM693.974 538.7L717.625 565.272L716.878 565.937L693.227 539.365L693.974 538.7ZM717.251 565.105H782.492V566.105H717.251V565.105Z" fill="url(#paint26_linear_176_197)" fill-opacity="0.3"/>
<path d="M526.828 623.178L531.828 620.291V626.064L526.828 623.178ZM645.084 623.178L645.427 623.542L645.283 623.678H645.084V623.178ZM688.142 582.687L687.799 582.323L687.944 582.187H688.142V582.687ZM840.965 582.687L835.965 585.574V579.8L840.965 582.687ZM531.328 622.678H645.084V623.678H531.328V622.678ZM644.742 622.813L687.799 582.323L688.484 583.051L645.427 623.542L644.742 622.813ZM688.142 582.187H836.465V583.187H688.142V582.187Z" fill="url(#paint27_linear_176_197)" fill-opacity="0.3"/>
<path d="M515.914 711.751L520.914 708.864V714.638L515.914 711.751ZM577.771 711.751L578.158 712.068L578.008 712.251H577.771V711.751ZM598.996 685.812L598.609 685.495L598.759 685.312H598.996V685.812ZM755.458 685.812L750.458 688.699V682.925L755.458 685.812ZM520.414 711.251H577.771V712.251H520.414V711.251ZM577.384 711.435L598.609 685.495L599.383 686.128L578.158 712.068L577.384 711.435ZM598.996 685.312H750.958V686.312H598.996V685.312Z" fill="url(#paint28_linear_176_197)" fill-opacity="0.3"/>
<path d="M-21.9995 818.672L-16.9995 815.785V821.559L-21.9995 818.672ZM51.3846 818.672V818.172H51.63L51.7802 818.366L51.3846 818.672ZM104.246 887V887.5H104.001L103.851 887.306L104.246 887ZM612.338 887L607.338 889.887V884.113L612.338 887ZM-17.4995 818.172H51.3846V819.172H-17.4995V818.172ZM51.7802 818.366L104.642 886.694L103.851 887.306L50.9892 818.978L51.7802 818.366ZM104.246 886.5H607.838V887.5H104.246V886.5Z" fill="url(#paint29_linear_176_197)" fill-opacity="0.3"/>
<path d="M314.575 425.153L319.575 422.266V428.039L314.575 425.153ZM484.378 425.153V424.653H484.581L484.727 424.794L484.378 425.153ZM511.668 451.725L506.072 450.305L510.099 446.168L511.668 451.725ZM319.075 424.653H484.378V425.653H319.075V424.653ZM484.727 424.794L508.793 448.227L508.095 448.944L484.029 425.511L484.727 424.794Z" fill="url(#paint30_linear_176_197)" fill-opacity="0.3"/>
<path d="M290.317 324.558L295.317 321.672V327.445L290.317 324.558ZM347.929 324.558V324.058H348.164L348.314 324.239L347.929 324.558ZM391.593 377.07V377.57H391.359L391.209 377.39L391.593 377.07ZM435.863 377.07L430.863 379.957V374.183L435.863 377.07ZM294.817 324.058H347.929V325.058H294.817V324.058ZM348.314 324.239L391.978 376.75L391.209 377.39L347.545 324.878L348.314 324.239ZM391.593 376.57H431.363V377.57H391.593V376.57Z" fill="url(#paint31_linear_176_197)" fill-opacity="0.3"/>
<path d="M304.872 342.273L309.872 339.386V345.16L304.872 342.273ZM338.833 342.273V341.773H339.056L339.205 341.939L338.833 342.273ZM384.316 392.887V393.387H384.093L383.944 393.221L384.316 392.887ZM446.173 392.887L441.173 395.773V390L446.173 392.887ZM309.372 341.773H338.833V342.773H309.372V341.773ZM339.205 341.939L384.688 392.552L383.944 393.221L338.461 342.607L339.205 341.939ZM384.316 392.387H441.673V393.387H384.316V392.387Z" fill="url(#paint32_linear_176_197)" fill-opacity="0.3"/>
<path d="M23.4825 513.094L28.4825 510.207V515.98L23.4825 513.094ZM68.3591 513.094V512.594H68.5778L68.7263 512.754L68.3591 513.094ZM84.733 530.808V531.308H84.5143L84.3658 531.148L84.733 530.808ZM167.209 530.808L162.209 533.695V527.921L167.209 530.808ZM27.9825 512.594H68.3591V513.594H27.9825V512.594ZM68.7263 512.754L85.1002 530.469L84.3658 531.148L67.9919 513.433L68.7263 512.754ZM84.733 530.308H162.709V531.308H84.733V530.308Z" fill="url(#paint33_linear_176_197)" fill-opacity="0.3"/>
<path d="M270.305 597.238L275.305 594.351V600.125L270.305 597.238ZM385.528 597.238L385.887 597.587L385.739 597.738H385.528V597.238ZM425.553 556.115L425.195 555.766L425.342 555.615H425.553V556.115ZM524.403 556.115L519.403 559.001V553.228L524.403 556.115ZM274.805 596.738H385.528V597.738H274.805V596.738ZM385.17 596.889L425.195 555.766L425.912 556.463L385.887 597.587L385.17 596.889ZM425.553 555.615H519.903V556.615H425.553V555.615Z" fill="url(#paint34_linear_176_197)" fill-opacity="0.3"/>
<path d="M-12.298 489.685L-7.298 486.798V492.571L-12.298 489.685ZM87.1583 489.685V489.185H87.3868L87.5363 489.357L87.1583 489.685ZM104.139 509.297L98.6835 507.407L103.048 503.628L104.139 509.297ZM-7.798 489.185H87.1583V490.185H-7.798V489.185ZM87.5363 489.357L101.571 505.568L100.815 506.223L86.7803 490.012L87.5363 489.357Z" fill="url(#paint35_linear_176_197)" fill-opacity="0.3"/>
<path d="M-10.4771 539.033L-5.4771 536.146V541.92L-10.4771 539.033ZM38.0382 539.033V538.533H38.2714L38.4213 538.712L38.0382 539.033ZM55.0185 559.278V559.778H54.7853L54.6354 559.6L55.0185 559.278ZM192.074 559.278L187.074 562.165V556.391L192.074 559.278ZM-5.9771 538.533H38.0382V539.533H-5.9771V538.533ZM38.4213 538.712L55.4016 558.957L54.6354 559.6L37.6551 539.354L38.4213 538.712ZM55.0185 558.778H187.574V559.778H55.0185V558.778Z" fill="url(#paint36_linear_176_197)" fill-opacity="0.3"/>
<path d="M215.726 564.972L216.842 559.308L221.19 563.107L215.726 564.972ZM234.525 543.461H235.025V543.649L234.902 543.79L234.525 543.461ZM234.525 400.479L234.907 400.155L235.025 400.295V400.479H234.525ZM215.726 378.335V377.835H215.957L216.107 378.012L215.726 378.335ZM155.688 378.335L160.688 375.448V381.222L155.688 378.335ZM218.311 561.255L234.149 543.132L234.902 543.79L219.063 561.913L218.311 561.255ZM234.025 543.461V400.479H235.025V543.461H234.025ZM234.144 400.802L215.345 378.659L216.107 378.012L234.907 400.155L234.144 400.802ZM215.726 378.835H160.188V377.835H215.726V378.835Z" fill="url(#paint37_linear_176_197)" fill-opacity="0.3"/>
<path d="M-9.26501 738.956L-4.26501 736.069V741.842L-9.26501 738.956ZM90.7977 738.956L91.0941 739.358L90.9619 739.456H90.7977V738.956ZM148.41 696.567L148.113 696.164L148.246 696.067H148.41V696.567ZM320.032 696.567V696.067H320.207L320.343 696.175L320.032 696.567ZM373.399 738.956V739.456H373.225L373.088 739.347L373.399 738.956ZM635.988 738.956L630.988 741.842V736.069L635.988 738.956ZM-4.76501 738.456H90.7977V739.456H-4.76501V738.456ZM90.5014 738.553L148.113 696.164L148.706 696.97L91.0941 739.358L90.5014 738.553ZM148.41 696.067H320.032V697.067H148.41V696.067ZM320.343 696.175L373.71 738.564L373.088 739.347L319.721 696.958L320.343 696.175ZM373.399 738.456H631.488V739.456H373.399V738.456Z" fill="url(#paint38_linear_176_197)" fill-opacity="0.3"/>
<path d="M13.1747 769.957L18.1747 767.07V772.843L13.1747 769.957ZM53.8062 769.957V769.457H53.9916L54.1321 769.577L53.8062 769.957ZM129.611 835.121L123.938 834.051L127.702 829.673L129.611 835.121ZM17.6747 769.457H53.8062V770.457H17.6747V769.457ZM54.1321 769.577L126.525 831.809L125.873 832.567L53.4803 770.336L54.1321 769.577Z" fill="url(#paint39_linear_176_197)" fill-opacity="0.3"/>
<path d="M-9.26392 683.281L-4.26392 680.394V686.168L-9.26392 683.281ZM64.7219 683.281L65.0634 683.646L64.9193 683.781H64.7219V683.281ZM99.8955 650.382L99.5539 650.017L99.6981 649.882H99.8955V650.382ZM233.312 650.382L228.312 653.269V647.496L233.312 650.382ZM-4.7639 682.781H64.7219V683.781H-4.7639V682.781ZM64.3804 682.916L99.5539 650.017L100.237 650.747L65.0634 683.646L64.3804 682.916ZM99.8955 649.882H228.812V650.882H99.8955V649.882Z" fill="url(#paint40_linear_176_197)" fill-opacity="0.3"/>
<path d="M144.164 766.16L149.164 763.274V769.047L144.164 766.16ZM297.594 766.16V765.66H297.861L298.009 765.882L297.594 766.16ZM327.31 810.447L327.725 810.169L327.81 810.295V810.447H327.31ZM327.31 862.326L324.423 857.326H330.196L327.31 862.326ZM148.664 765.66H297.594V766.66H148.664V765.66ZM298.009 765.882L327.725 810.169L326.894 810.726L297.179 766.439L298.009 765.882ZM327.81 810.447V857.826H326.81V810.447H327.81Z" fill="url(#paint41_linear_176_197)" fill-opacity="0.3"/>
<path d="M214.512 625.076L219.512 622.189V627.962L214.512 625.076ZM366.122 625.076V624.576H366.392L366.54 624.801L366.122 625.076ZM397.657 673.158L398.075 672.884L398.157 673.009V673.158H397.657ZM397.657 719.976L394.77 714.976H400.544L397.657 719.976ZM219.012 624.576H366.122V625.576H219.012V624.576ZM366.54 624.801L398.075 672.884L397.239 673.433L365.704 625.35L366.54 624.801ZM398.157 673.158V715.476H397.157V673.158H398.157Z" fill="url(#paint42_linear_176_197)" fill-opacity="0.3"/>
<path d="M-11.69 637.096L-6.68998 634.21V639.983L-11.69 637.096ZM51.9863 637.096L46.9863 639.983V634.21L51.9863 637.096ZM-7.18998 636.596H47.4863V637.596H-7.18998V636.596Z" fill="url(#paint43_linear_176_197)" fill-opacity="0.3"/>
<path d="M22.8766 568.135L25.7634 573.135H19.9898L22.8766 568.135ZM22.8766 613.688V614.188H22.3766V613.688H22.8766ZM250.898 613.688L245.898 616.574V610.801L250.898 613.688ZM23.3766 572.635V613.688H22.3766V572.635H23.3766ZM22.8766 613.188H246.398V614.188H22.8766V613.188Z" fill="url(#paint44_linear_176_197)" fill-opacity="0.3"/>
<path d="M-11.0844 469.439L-6.08437 466.553V472.326L-11.0844 469.439ZM68.3594 469.439L68.6835 469.82L68.5434 469.939H68.3594V469.439ZM114.449 430.214L114.125 429.833L114.265 429.714H114.449V430.214ZM213.299 430.214L208.299 433.101V427.327L213.299 430.214ZM-6.58437 468.939H68.3594V469.939H-6.58437V468.939ZM68.0354 469.059L114.125 429.833L114.773 430.595L68.6835 469.82L68.0354 469.059ZM114.449 429.714H208.799V430.714H114.449V429.714Z" fill="url(#paint45_linear_176_197)" fill-opacity="0.3"/>
<path d="M-12.9042 756.67L-7.90424 753.784V759.557L-12.9042 756.67ZM93.223 756.67V756.17H93.4601L93.6101 756.354L93.223 756.67ZM124.758 795.263V795.763H124.521L124.371 795.58L124.758 795.263ZM273.336 795.263L268.336 798.15V792.376L273.336 795.263ZM-8.40424 756.17H93.223V757.17H-8.40424V756.17ZM93.6101 756.354L125.145 794.947L124.371 795.58L92.8358 756.987L93.6101 756.354ZM124.758 794.763H268.836V795.763H124.758V794.763Z" fill="url(#paint46_linear_176_197)" fill-opacity="0.3"/>
<path d="M-11.0848 407.438L-6.08479 404.551V410.325L-11.0848 407.438ZM37.4305 407.438L37.8027 407.772L37.6537 407.938H37.4305V407.438ZM90.1909 348.6L89.8186 348.266L89.9676 348.1H90.1909V348.6ZM152.654 348.6L147.654 351.487V345.713L152.654 348.6ZM-6.58479 406.938H37.4305V407.938H-6.58479V406.938ZM37.0582 407.104L89.8186 348.266L90.5631 348.934L37.8027 407.772L37.0582 407.104ZM90.1909 348.1H148.154V349.1H90.1909V348.1Z" fill="url(#paint47_linear_176_197)" fill-opacity="0.3"/>
<path d="M168.423 325.191L173.423 322.304V328.078L168.423 325.191ZM236.344 325.191V324.691H236.569L236.718 324.859L236.344 325.191ZM290.317 385.927L284.838 384.107L289.154 380.272L290.317 385.927ZM172.923 324.691H236.344V325.691H172.923V324.691ZM236.718 324.859L287.702 382.231L286.954 382.896L235.97 325.523L236.718 324.859Z" fill="url(#paint48_linear_176_197)" fill-opacity="0.3"/>
<path d="M291.53 454.255L294.417 459.255H288.644L291.53 454.255ZM291.53 508.665L288.644 503.665H294.417L291.53 508.665ZM292.03 458.755V504.165H291.03V458.755H292.03Z" fill="url(#paint49_linear_176_197)" fill-opacity="0.3"/>
<path d="M116.876 487.787L121.876 484.9V490.673L116.876 487.787ZM213.906 487.787L208.906 490.673V484.9L213.906 487.787ZM121.376 487.287H209.406V488.287H121.376V487.287Z" fill="url(#paint50_linear_176_197)" fill-opacity="0.3"/>
<path d="M557.151 500.44L562.151 497.553V503.327L557.151 500.44ZM631.743 500.44L632.143 500.74L631.993 500.94H631.743V500.44ZM657.82 465.643L657.42 465.343L657.57 465.143H657.82V465.643ZM780.928 465.643L775.928 468.53V462.757L780.928 465.643ZM561.651 499.94H631.743V500.94H561.651V499.94ZM631.343 500.14L657.42 465.343L658.22 465.943L632.143 500.74L631.343 500.14ZM657.82 465.143H776.428V466.143H657.82V465.143Z" fill="url(#paint51_linear_176_197)" fill-opacity="0.3"/>
<path d="M327.5 639L330.387 644H324.613L327.5 639ZM327.5 687.715L324.613 682.715H330.387L327.5 687.715ZM328 643.5V683.215H327V643.5H328Z" fill="url(#paint52_linear_176_197)" fill-opacity="0.35"/>
<path d="M843.998 373.274L848.998 370.387V376.161L843.998 373.274ZM931.325 373.274V372.774H931.548L931.696 372.939L931.325 373.274ZM971.351 417.561L965.856 415.787L970.14 411.916L971.351 417.561ZM848.498 372.774H931.325V373.774H848.498V372.774ZM931.696 372.939L968.704 413.887L967.962 414.557L930.955 373.609L931.696 372.939Z" fill="url(#paint53_linear_176_197)" fill-opacity="0.3"/>
<path d="M1020.47 711.751L1015.47 714.638V708.864L1020.47 711.751ZM922.835 711.751L922.4 711.503L922.544 711.251H922.835V711.751ZM857.945 825.631L857.913 819.858L862.929 822.716L857.945 825.631ZM1015.97 712.251H922.835V711.251H1015.97V712.251ZM923.269 711.999L860.608 821.969L859.739 821.474L922.4 711.503L923.269 711.999Z" fill="url(#paint54_linear_176_197)" fill-opacity="0.3"/>
<path d="M1042.91 678.321L1045.8 673.321H1040.02L1042.91 678.321ZM1042.91 648.016L1040.02 653.016H1045.8L1042.91 648.016ZM1043.41 673.821V652.516H1042.41V673.821H1043.41Z" fill="url(#paint55_linear_176_197)" fill-opacity="0.3"/>
<path d="M242.408 365.853L243.535 371.515L247.876 367.708L242.408 365.853ZM306.476 438.891L306.1 439.22L306.249 439.391H306.476V438.891ZM395.505 438.891L390.505 436.004V441.777L395.505 438.891ZM395.505 398.879L390.505 395.992V401.765L395.505 398.879ZM323.949 398.879L323.555 399.187L323.705 399.379H323.949V398.879ZM263.209 321.395L264.022 327.111L268.566 323.549L263.209 321.395ZM245 369.566L306.1 439.22L306.852 438.561L245.752 368.906L245 369.566ZM306.476 439.391H391.005V438.391H306.476V439.391ZM391.005 398.379H323.949V399.379H391.005V398.379ZM324.342 398.57L266.379 324.628L265.592 325.245L323.555 399.187L324.342 398.57Z" fill="url(#paint56_linear_176_197)" fill-opacity="0.3"/>
<defs>
<linearGradient id="paint0_linear_176_197" x1="444.354" y1="187.27" x2="389.266" y2="384.904" gradientUnits="userSpaceOnUse">
<stop stop-color="#F8F1FE" stop-opacity="0"/>
<stop offset="0.526042" stop-color="#F8F2FD"/>
<stop offset="1" stop-color="#F8F1FE" stop-opacity="0"/>
</linearGradient>
<linearGradient id="paint1_linear_176_197" x1="72.6055" y1="248.006" x2="72.5623" y2="250.517" gradientUnits="userSpaceOnUse">
<stop stop-color="#F8F1FE" stop-opacity="0"/>
<stop offset="0.526042" stop-color="#F8F2FD"/>
<stop offset="1" stop-color="#F8F1FE" stop-opacity="0"/>
</linearGradient>
<linearGradient id="paint2_linear_176_197" x1="182.371" y1="304.946" x2="156.654" y2="394.52" gradientUnits="userSpaceOnUse">
<stop stop-color="#F8F1FE" stop-opacity="0"/>
<stop offset="0.526042" stop-color="#F8F2FD"/>
<stop offset="1" stop-color="#F8F1FE" stop-opacity="0"/>
</linearGradient>
<linearGradient id="paint3_linear_176_197" x1="543.203" y1="235.985" x2="390.623" y2="423.108" gradientUnits="userSpaceOnUse">
<stop stop-color="#F8F1FE" stop-opacity="0"/>
<stop offset="0.526042" stop-color="#F8F2FD"/>
<stop offset="1" stop-color="#F8F1FE" stop-opacity="0"/>
</linearGradient>
<linearGradient id="paint4_linear_176_197" x1="241.801" y1="223.964" x2="135.485" y2="406.984" gradientUnits="userSpaceOnUse">
<stop stop-color="#F8F1FE" stop-opacity="0"/>
<stop offset="0.526042" stop-color="#F8F2FD"/>
<stop offset="1" stop-color="#F8F1FE" stop-opacity="0"/>
</linearGradient>
<linearGradient id="paint5_linear_176_197" x1="287.891" y1="99.3289" x2="117.13" y2="334.621" gradientUnits="userSpaceOnUse">
<stop stop-color="#F8F1FE" stop-opacity="0"/>
<stop offset="0.526042" stop-color="#F8F2FD"/>
<stop offset="1" stop-color="#F8F1FE" stop-opacity="0"/>
</linearGradient>
<linearGradient id="paint6_linear_176_197" x1="238.164" y1="0" x2="156.219" y2="155.5" gradientUnits="userSpaceOnUse">
<stop stop-color="#F8F1FE" stop-opacity="0"/>
<stop offset="0.526042" stop-color="#F8F2FD"/>
<stop offset="1" stop-color="#F8F1FE" stop-opacity="0"/>
</linearGradient>
<linearGradient id="paint7_linear_176_197" x1="354.6" y1="23.4087" x2="153.852" y2="213.131" gradientUnits="userSpaceOnUse">
<stop stop-color="#F8F1FE" stop-opacity="0"/>
<stop offset="0.526042" stop-color="#F8F2FD"/>
<stop offset="1" stop-color="#F8F1FE" stop-opacity="0"/>
</linearGradient>
<linearGradient id="paint8_linear_176_197" x1="161.145" y1="159.432" x2="161.122" y2="161.944" gradientUnits="userSpaceOnUse">
<stop stop-color="#F8F1FE" stop-opacity="0"/>
<stop offset="0.526042" stop-color="#F8F2FD"/>
<stop offset="1" stop-color="#F8F1FE" stop-opacity="0"/>
</linearGradient>
<linearGradient id="paint9_linear_176_197" x1="238.164" y1="124.635" x2="171.365" y2="148.891" gradientUnits="userSpaceOnUse">
<stop stop-color="#F8F1FE" stop-opacity="0"/>
<stop offset="0.526042" stop-color="#F8F2FD"/>
<stop offset="1" stop-color="#F8F1FE" stop-opacity="0"/>
</linearGradient>
<linearGradient id="paint10_linear_176_197" x1="157.506" y1="249.904" x2="134.239" y2="320.073" gradientUnits="userSpaceOnUse">
<stop stop-color="#F8F1FE" stop-opacity="0"/>
<stop offset="0.526042" stop-color="#F8F2FD"/>
<stop offset="1" stop-color="#F8F1FE" stop-opacity="0"/>
</linearGradient>
<linearGradient id="paint11_linear_176_197" x1="657.214" y1="212.576" x2="582.777" y2="391.402" gradientUnits="userSpaceOnUse">
<stop stop-color="#F8F1FE" stop-opacity="0"/>
<stop offset="0.526042" stop-color="#F8F2FD"/>
<stop offset="1" stop-color="#F8F1FE" stop-opacity="0"/>
</linearGradient>
<linearGradient id="paint12_linear_176_197" x1="326.704" y1="43.6541" x2="241.751" y2="220.632" gradientUnits="userSpaceOnUse">
<stop stop-color="#F8F1FE" stop-opacity="0"/>
<stop offset="0.526042" stop-color="#F8F2FD"/>
<stop offset="1" stop-color="#F8F1FE" stop-opacity="0"/>
</linearGradient>
<linearGradient id="paint13_linear_176_197" x1="422.521" y1="734.527" x2="393.005" y2="842.489" gradientUnits="userSpaceOnUse">
<stop stop-color="#F8F1FE" stop-opacity="0"/>
<stop offset="0.526042" stop-color="#F8F2FD"/>
<stop offset="1" stop-color="#F8F1FE" stop-opacity="0"/>
</linearGradient>
<linearGradient id="paint14_linear_176_197" x1="540.777" y1="582.054" x2="499.038" y2="670.424" gradientUnits="userSpaceOnUse">
<stop stop-color="#F8F1FE" stop-opacity="0"/>
<stop offset="0.526042" stop-color="#F8F2FD"/>
<stop offset="1" stop-color="#F8F1FE" stop-opacity="0"/>
</linearGradient>
<linearGradient id="paint15_linear_176_197" x1="314.575" y1="822.468" x2="291.838" y2="901.781" gradientUnits="userSpaceOnUse">
<stop stop-color="#F8F1FE" stop-opacity="0"/>
<stop offset="0.526042" stop-color="#F8F2FD"/>
<stop offset="1" stop-color="#F8F1FE" stop-opacity="0"/>
</linearGradient>
<linearGradient id="paint16_linear_176_197" x1="418.276" y1="854.734" x2="401.036" y2="913.232" gradientUnits="userSpaceOnUse">
<stop stop-color="#F8F1FE" stop-opacity="0"/>
<stop offset="0.526042" stop-color="#F8F2FD"/>
<stop offset="1" stop-color="#F8F1FE" stop-opacity="0"/>
</linearGradient>
<linearGradient id="paint17_linear_176_197" x1="585.048" y1="799.059" x2="500.019" y2="885.243" gradientUnits="userSpaceOnUse">
<stop stop-color="#F8F1FE" stop-opacity="0"/>
<stop offset="0.526042" stop-color="#F8F2FD"/>
<stop offset="1" stop-color="#F8F1FE" stop-opacity="0"/>
</linearGradient>
<linearGradient id="paint18_linear_176_197" x1="1089" y1="581.422" x2="1067.6" y2="693.361" gradientUnits="userSpaceOnUse">
<stop stop-color="#F8F1FE" stop-opacity="0"/>
<stop offset="0.526042" stop-color="#F8F2FD"/>
<stop offset="1" stop-color="#F8F1FE" stop-opacity="0"/>
</linearGradient>
<linearGradient id="paint19_linear_176_197" x1="817.314" y1="778.181" x2="797.687" y2="879.276" gradientUnits="userSpaceOnUse">
<stop stop-color="#F8F1FE" stop-opacity="0"/>
<stop offset="0.526042" stop-color="#F8F2FD"/>
<stop offset="1" stop-color="#F8F1FE" stop-opacity="0"/>
</linearGradient>
<linearGradient id="paint20_linear_176_197" x1="890.088" y1="406.805" x2="880.236" y2="442.211" gradientUnits="userSpaceOnUse">
<stop stop-color="#F8F1FE" stop-opacity="0"/>
<stop offset="0.526042" stop-color="#F8F2FD"/>
<stop offset="1" stop-color="#F8F1FE" stop-opacity="0"/>
</linearGradient>
<linearGradient id="paint21_linear_176_197" x1="891.301" y1="435.275" x2="878.992" y2="474.309" gradientUnits="userSpaceOnUse">
<stop stop-color="#F8F1FE" stop-opacity="0"/>
<stop offset="0.526042" stop-color="#F8F2FD"/>
<stop offset="1" stop-color="#F8F1FE" stop-opacity="0"/>
</linearGradient>
<linearGradient id="paint22_linear_176_197" x1="1041.7" y1="640.26" x2="988.062" y2="746.765" gradientUnits="userSpaceOnUse">
<stop stop-color="#F8F1FE" stop-opacity="0"/>
<stop offset="0.526042" stop-color="#F8F2FD"/>
<stop offset="1" stop-color="#F8F1FE" stop-opacity="0"/>
</linearGradient>
<linearGradient id="paint23_linear_176_197" x1="943.454" y1="602.3" x2="893.454" y2="703.055" gradientUnits="userSpaceOnUse">
<stop stop-color="#F8F1FE" stop-opacity="0"/>
<stop offset="0.526042" stop-color="#F8F2FD"/>
<stop offset="1" stop-color="#F8F1FE" stop-opacity="0"/>
</linearGradient>
<linearGradient id="paint24_linear_176_197" x1="1064.74" y1="508.032" x2="1052.56" y2="588.849" gradientUnits="userSpaceOnUse">
<stop stop-color="#F8F1FE" stop-opacity="0"/>
<stop offset="0.526042" stop-color="#F8F2FD"/>
<stop offset="1" stop-color="#F8F1FE" stop-opacity="0"/>
</linearGradient>
<linearGradient id="paint25_linear_176_197" x1="1000.46" y1="444.133" x2="974.569" y2="562.446" gradientUnits="userSpaceOnUse">
<stop stop-color="#F8F1FE" stop-opacity="0"/>
<stop offset="0.526042" stop-color="#F8F2FD"/>
<stop offset="1" stop-color="#F8F1FE" stop-opacity="0"/>
</linearGradient>
<linearGradient id="paint26_linear_176_197" x1="786.992" y1="539.033" x2="768.426" y2="600.151" gradientUnits="userSpaceOnUse">
<stop stop-color="#F8F1FE" stop-opacity="0"/>
<stop offset="0.526042" stop-color="#F8F2FD"/>
<stop offset="1" stop-color="#F8F1FE" stop-opacity="0"/>
</linearGradient>
<linearGradient id="paint27_linear_176_197" x1="840.965" y1="582.687" x2="821.872" y2="680.694" gradientUnits="userSpaceOnUse">
<stop stop-color="#F8F1FE" stop-opacity="0"/>
<stop offset="0.526042" stop-color="#F8F2FD"/>
<stop offset="1" stop-color="#F8F1FE" stop-opacity="0"/>
</linearGradient>
<linearGradient id="paint28_linear_176_197" x1="755.458" y1="685.812" x2="745.071" y2="749.28" gradientUnits="userSpaceOnUse">
<stop stop-color="#F8F1FE" stop-opacity="0"/>
<stop offset="0.526042" stop-color="#F8F2FD"/>
<stop offset="1" stop-color="#F8F1FE" stop-opacity="0"/>
</linearGradient>
<linearGradient id="paint29_linear_176_197" x1="612.338" y1="818.672" x2="585.113" y2="985.903" gradientUnits="userSpaceOnUse">
<stop stop-color="#F8F1FE" stop-opacity="0"/>
<stop offset="0.526042" stop-color="#F8F2FD"/>
<stop offset="1" stop-color="#F8F1FE" stop-opacity="0"/>
</linearGradient>
<linearGradient id="paint30_linear_176_197" x1="511.668" y1="425.153" x2="498.608" y2="489.249" gradientUnits="userSpaceOnUse">
<stop stop-color="#F8F1FE" stop-opacity="0"/>
<stop offset="0.526042" stop-color="#F8F2FD"/>
<stop offset="1" stop-color="#F8F1FE" stop-opacity="0"/>
</linearGradient>
<linearGradient id="paint31_linear_176_197" x1="435.863" y1="324.558" x2="380.414" y2="426.249" gradientUnits="userSpaceOnUse">
<stop stop-color="#F8F1FE" stop-opacity="0"/>
<stop offset="0.526042" stop-color="#F8F2FD"/>
<stop offset="1" stop-color="#F8F1FE" stop-opacity="0"/>
</linearGradient>
<linearGradient id="paint32_linear_176_197" x1="446.173" y1="342.273" x2="392.937" y2="440.611" gradientUnits="userSpaceOnUse">
<stop stop-color="#F8F1FE" stop-opacity="0"/>
<stop offset="0.526042" stop-color="#F8F2FD"/>
<stop offset="1" stop-color="#F8F1FE" stop-opacity="0"/>
</linearGradient>
<linearGradient id="paint33_linear_176_197" x1="167.209" y1="513.094" x2="159.197" y2="556.106" gradientUnits="userSpaceOnUse">
<stop stop-color="#F8F1FE" stop-opacity="0"/>
<stop offset="0.526042" stop-color="#F8F2FD"/>
<stop offset="1" stop-color="#F8F1FE" stop-opacity="0"/>
</linearGradient>
<linearGradient id="paint34_linear_176_197" x1="524.403" y1="556.115" x2="500.559" y2="653.598" gradientUnits="userSpaceOnUse">
<stop stop-color="#F8F1FE" stop-opacity="0"/>
<stop offset="0.526042" stop-color="#F8F2FD"/>
<stop offset="1" stop-color="#F8F1FE" stop-opacity="0"/>
</linearGradient>
<linearGradient id="paint35_linear_176_197" x1="104.139" y1="489.685" x2="92.3584" y2="535.959" gradientUnits="userSpaceOnUse">
<stop stop-color="#F8F1FE" stop-opacity="0"/>
<stop offset="0.526042" stop-color="#F8F2FD"/>
<stop offset="1" stop-color="#F8F1FE" stop-opacity="0"/>
</linearGradient>
<linearGradient id="paint36_linear_176_197" x1="192.074" y1="539.033" x2="184.562" y2="588.761" gradientUnits="userSpaceOnUse">
<stop stop-color="#F8F1FE" stop-opacity="0"/>
<stop offset="0.526042" stop-color="#F8F2FD"/>
<stop offset="1" stop-color="#F8F1FE" stop-opacity="0"/>
</linearGradient>
<linearGradient id="paint37_linear_176_197" x1="234.525" y1="378.335" x2="112.969" y2="412.309" gradientUnits="userSpaceOnUse">
<stop stop-color="#F8F1FE" stop-opacity="0"/>
<stop offset="0.526042" stop-color="#F8F2FD"/>
<stop offset="1" stop-color="#F8F1FE" stop-opacity="0"/>
</linearGradient>
<linearGradient id="paint38_linear_176_197" x1="635.988" y1="696.567" x2="625.518" y2="802.022" gradientUnits="userSpaceOnUse">
<stop stop-color="#F8F1FE" stop-opacity="0"/>
<stop offset="0.526042" stop-color="#F8F2FD"/>
<stop offset="1" stop-color="#F8F1FE" stop-opacity="0"/>
</linearGradient>
<linearGradient id="paint39_linear_176_197" x1="129.611" y1="769.957" x2="48.8876" y2="865.392" gradientUnits="userSpaceOnUse">
<stop stop-color="#F8F1FE" stop-opacity="0"/>
<stop offset="0.526042" stop-color="#F8F2FD"/>
<stop offset="1" stop-color="#F8F1FE" stop-opacity="0"/>
</linearGradient>
<linearGradient id="paint40_linear_176_197" x1="233.312" y1="650.382" x2="217.054" y2="729.702" gradientUnits="userSpaceOnUse">
<stop stop-color="#F8F1FE" stop-opacity="0"/>
<stop offset="0.526042" stop-color="#F8F2FD"/>
<stop offset="1" stop-color="#F8F1FE" stop-opacity="0"/>
</linearGradient>
<linearGradient id="paint41_linear_176_197" x1="327.31" y1="766.16" x2="209.668" y2="914.402" gradientUnits="userSpaceOnUse">
<stop stop-color="#F8F1FE" stop-opacity="0"/>
<stop offset="0.526042" stop-color="#F8F2FD"/>
<stop offset="1" stop-color="#F8F1FE" stop-opacity="0"/>
</linearGradient>
<linearGradient id="paint42_linear_176_197" x1="397.657" y1="625.076" x2="281.922" y2="772.86" gradientUnits="userSpaceOnUse">
<stop stop-color="#F8F1FE" stop-opacity="0"/>
<stop offset="0.526042" stop-color="#F8F2FD"/>
<stop offset="1" stop-color="#F8F1FE" stop-opacity="0"/>
</linearGradient>
<linearGradient id="paint43_linear_176_197" x1="51.9863" y1="637.096" x2="51.9267" y2="639.607" gradientUnits="userSpaceOnUse">
<stop stop-color="#F8F1FE" stop-opacity="0"/>
<stop offset="0.526042" stop-color="#F8F2FD"/>
<stop offset="1" stop-color="#F8F1FE" stop-opacity="0"/>
</linearGradient>
<linearGradient id="paint44_linear_176_197" x1="250.898" y1="568.135" x2="219.232" y2="673.017" gradientUnits="userSpaceOnUse">
<stop stop-color="#F8F1FE" stop-opacity="0"/>
<stop offset="0.526042" stop-color="#F8F2FD"/>
<stop offset="1" stop-color="#F8F1FE" stop-opacity="0"/>
</linearGradient>
<linearGradient id="paint45_linear_176_197" x1="213.299" y1="430.214" x2="188.961" y2="522.331" gradientUnits="userSpaceOnUse">
<stop stop-color="#F8F1FE" stop-opacity="0"/>
<stop offset="0.526042" stop-color="#F8F2FD"/>
<stop offset="1" stop-color="#F8F1FE" stop-opacity="0"/>
</linearGradient>
<linearGradient id="paint46_linear_176_197" x1="273.336" y1="756.67" x2="254.366" y2="849.763" gradientUnits="userSpaceOnUse">
<stop stop-color="#F8F1FE" stop-opacity="0"/>
<stop offset="0.526042" stop-color="#F8F2FD"/>
<stop offset="1" stop-color="#F8F1FE" stop-opacity="0"/>
</linearGradient>
<linearGradient id="paint47_linear_176_197" x1="152.654" y1="348.6" x2="90.6595" y2="462.752" gradientUnits="userSpaceOnUse">
<stop stop-color="#F8F1FE" stop-opacity="0"/>
<stop offset="0.526042" stop-color="#F8F2FD"/>
<stop offset="1" stop-color="#F8F1FE" stop-opacity="0"/>
</linearGradient>
<linearGradient id="paint48_linear_176_197" x1="290.317" y1="325.191" x2="216.992" y2="422.562" gradientUnits="userSpaceOnUse">
<stop stop-color="#F8F1FE" stop-opacity="0"/>
<stop offset="0.526042" stop-color="#F8F2FD"/>
<stop offset="1" stop-color="#F8F1FE" stop-opacity="0"/>
</linearGradient>
<linearGradient id="paint49_linear_176_197" x1="291.53" y1="454.255" x2="289.868" y2="454.276" gradientUnits="userSpaceOnUse">
<stop stop-color="#F8F1FE" stop-opacity="0"/>
<stop offset="0.526042" stop-color="#F8F2FD"/>
<stop offset="1" stop-color="#F8F1FE" stop-opacity="0"/>
</linearGradient>
<linearGradient id="paint50_linear_176_197" x1="213.906" y1="487.787" x2="213.867" y2="490.298" gradientUnits="userSpaceOnUse">
<stop stop-color="#F8F1FE" stop-opacity="0"/>
<stop offset="0.526042" stop-color="#F8F2FD"/>
<stop offset="1" stop-color="#F8F1FE" stop-opacity="0"/>
</linearGradient>
<linearGradient id="paint51_linear_176_197" x1="780.928" y1="465.643" x2="761.458" y2="548.489" gradientUnits="userSpaceOnUse">
<stop stop-color="#F8F1FE" stop-opacity="0"/>
<stop offset="0.526042" stop-color="#F8F2FD"/>
<stop offset="1" stop-color="#F8F1FE" stop-opacity="0"/>
</linearGradient>
<linearGradient id="paint52_linear_176_197" x1="375.932" y1="528.91" x2="375.932" y2="577.626" gradientUnits="userSpaceOnUse">
<stop offset="0.104167" stop-color="#A8A9AD" stop-opacity="0.49"/>
<stop offset="1" stop-color="white"/>
</linearGradient>
<linearGradient id="paint53_linear_176_197" x1="971.351" y1="373.274" x2="925.531" y2="460.455" gradientUnits="userSpaceOnUse">
<stop stop-color="#F8F1FE" stop-opacity="0"/>
<stop offset="0.526042" stop-color="#F8F2FD"/>
<stop offset="1" stop-color="#F8F1FE" stop-opacity="0"/>
</linearGradient>
<linearGradient id="paint54_linear_176_197" x1="1020.47" y1="711.751" x2="877.654" y2="846.613" gradientUnits="userSpaceOnUse">
<stop stop-color="#F8F1FE" stop-opacity="0"/>
<stop offset="0.526042" stop-color="#F8F2FD"/>
<stop offset="1" stop-color="#F8F1FE" stop-opacity="0"/>
</linearGradient>
<linearGradient id="paint55_linear_176_197" x1="1042.91" y1="648.016" x2="1044.57" y2="648.052" gradientUnits="userSpaceOnUse">
<stop stop-color="#F8F1FE" stop-opacity="0"/>
<stop offset="0.526042" stop-color="#F8F2FD"/>
<stop offset="1" stop-color="#F8F1FE" stop-opacity="0"/>
</linearGradient>
<linearGradient id="paint56_linear_176_197" x1="242.408" y1="321.395" x2="388.393" y2="447.254" gradientUnits="userSpaceOnUse">
<stop stop-color="#F8F1FE" stop-opacity="0"/>
<stop offset="0.526042" stop-color="#F8F2FD"/>
<stop offset="1" stop-color="#F8F1FE" stop-opacity="0"/>
</linearGradient>
</defs>
</svg>
