<svg width="313" height="72" viewBox="0 0 313 72" fill="none" xmlns="http://www.w3.org/2000/svg">
<g filter="url(#filter0_d_298_379)">
<path d="M4 9.75V53.776C4 56.362 5.02726 58.842 6.85571 60.6707C8.68416 62.4993 11.164 63.5267 13.75 63.527H298.768C301.354 63.527 303.834 62.4997 305.663 60.671C307.492 58.8424 308.519 56.3621 308.519 53.776V9.75C308.519 7.16405 307.491 4.6841 305.663 2.85565C303.834 1.0272 301.354 -1.35985e-08 298.768 0H13.75C11.1641 0 8.68419 1.02723 6.85571 2.85571C5.02723 4.68419 4 7.16414 4 9.75ZM15.2631 1.51199H214.815C216.486 1.51163 218.128 1.94055 219.586 2.75757C221.043 3.57459 222.266 4.75235 223.137 6.17786C224.008 7.60336 224.499 9.22881 224.561 10.8983C224.624 12.5678 224.256 14.2254 223.494 15.712L202.494 56.712C201.675 58.3092 200.432 59.6495 198.901 60.5854C197.37 61.5214 195.61 62.0168 193.815 62.017H15.2631C12.6771 62.017 10.197 60.9898 8.36841 59.1614C6.53977 57.3329 5.51235 54.853 5.51208 52.267V11.267C5.51103 9.98584 5.76239 8.71699 6.25195 7.53302C6.74152 6.34905 7.45967 5.27313 8.36523 4.36682C9.2708 3.46051 10.3461 2.74157 11.5297 2.25104C12.7132 1.7605 13.9819 1.508 15.2631 1.508V1.51199Z" fill="url(#paint0_linear_298_379)"/>
</g>
<mask id="mask0_298_379" style="mask-type:luminance" maskUnits="userSpaceOnUse" x="266" y="17" width="27" height="27">
<path d="M292.335 17.798H266.622V43.511H292.335V17.798Z" fill="white"/>
</mask>
<g mask="url(#mask0_298_379)">
<path d="M279.477 31.908L283.595 27.791L284.771 28.967L279.477 34.261L274.183 28.967L275.36 27.791L279.477 31.908Z" fill="white"/>
</g>
<path d="M48.1233 36.2234C47.3503 36.5976 46.341 36.7847 45.0953 36.7847C43.4706 36.7847 42.1929 36.3071 41.2624 35.3519C40.3318 34.3968 39.8666 33.124 39.8666 31.5338C39.8666 29.8401 40.3885 28.4664 41.4323 27.4128C42.481 26.3592 43.8398 25.8323 45.5089 25.8323C46.5428 25.8323 47.4143 25.9628 48.1233 26.2238V28.5206C47.4143 28.0971 46.6069 27.8854 45.7009 27.8854C44.7064 27.8854 43.9038 28.1981 43.2933 28.8234C42.6828 29.4486 42.3776 30.2955 42.3776 31.3639C42.3776 32.388 42.6656 33.2053 43.2416 33.8158C43.8177 34.4214 44.5931 34.7242 45.568 34.7242C46.4985 34.7242 47.3503 34.4977 48.1233 34.0447V36.2234ZM54.2531 36.7847C52.7366 36.7847 51.5008 36.2923 50.5457 35.3076C49.5905 34.318 49.1129 33.0305 49.1129 31.4451C49.1129 29.7711 49.5979 28.4172 50.5678 27.3832C51.5377 26.3493 52.8228 25.8323 54.4229 25.8323C55.9344 25.8323 57.1555 26.3271 58.086 27.3168C59.0215 28.3064 59.4892 29.6111 59.4892 31.231C59.4892 32.8951 59.0042 34.2368 58.0343 35.2559C57.0693 36.2751 55.8089 36.7847 54.2531 36.7847ZM54.3564 27.8854C53.5194 27.8854 52.8548 28.2005 52.3624 28.8307C51.8701 29.456 51.6239 30.2856 51.6239 31.3196C51.6239 32.3683 51.8701 33.1979 52.3624 33.8084C52.8548 34.4189 53.4998 34.7242 54.2974 34.7242C55.1196 34.7242 55.772 34.4288 56.2545 33.838C56.737 33.2422 56.9782 32.4175 56.9782 31.3639C56.9782 30.266 56.7443 29.4117 56.2766 28.8012C55.8089 28.1907 55.1688 27.8854 54.3564 27.8854ZM70.7812 36.6H68.3737L64.009 29.9459C63.753 29.557 63.5757 29.264 63.4772 29.0671H63.4477C63.4871 29.4413 63.5068 30.0124 63.5068 30.7805V36.6H61.2543V26.0096H63.8243L68.0266 32.4569C68.2186 32.7474 68.3958 33.0354 68.5583 33.321H68.5878C68.5484 33.0748 68.5287 32.5898 68.5287 31.8661V26.0096H70.7812V36.6ZM82.7306 36.6H80.323L75.9583 29.9459C75.7023 29.557 75.525 29.264 75.4266 29.0671H75.397C75.4364 29.4413 75.4561 30.0124 75.4561 30.7805V36.6H73.2036V26.0096H75.7737L79.9759 32.4569C80.1679 32.7474 80.3452 33.0354 80.5076 33.321H80.5372C80.4978 33.0748 80.4781 32.5898 80.4781 31.8661V26.0096H82.7306V36.6ZM91.5043 36.6H85.153V26.0096H91.2606V27.9519H87.5384V30.3078H91.0021V32.2427H87.5384V34.6651H91.5043V36.6ZM100.795 36.2234C100.022 36.5976 99.0126 36.7847 97.767 36.7847C96.1422 36.7847 94.8646 36.3071 93.934 35.3519C93.0035 34.3968 92.5382 33.124 92.5382 31.5338C92.5382 29.8401 93.0601 28.4664 94.1039 27.4128C95.1526 26.3592 96.5115 25.8323 98.1805 25.8323C99.2145 25.8323 100.086 25.9628 100.795 26.2238V28.5206C100.086 28.0971 99.2785 27.8854 98.3726 27.8854C97.378 27.8854 96.5755 28.1981 95.965 28.8234C95.3545 29.4486 95.0492 30.2955 95.0492 31.3639C95.0492 32.388 95.3372 33.2053 95.9133 33.8158C96.4893 34.4214 97.2648 34.7242 98.2396 34.7242C99.1702 34.7242 100.022 34.4977 100.795 34.0447V36.2234ZM110.078 27.9519H107.058V36.6H104.665V27.9519H101.659V26.0096H110.078V27.9519ZM129.538 26.0096L126.739 36.6H124.095L122.338 29.8056C122.244 29.4511 122.188 29.0548 122.168 28.6166H122.138C122.094 29.0991 122.03 29.4954 121.946 29.8056L120.144 36.6H117.39L114.605 26.0096H117.212L118.704 33.0625C118.768 33.3628 118.815 33.7666 118.844 34.2737H118.889C118.908 33.8946 118.98 33.481 119.103 33.033L121.023 26.0096H123.578L125.314 33.1216C125.378 33.3825 125.435 33.7616 125.484 34.2589H125.513C125.533 33.87 125.585 33.4761 125.668 33.0773L127.131 26.0096H129.538ZM139.664 36.6H137.064L136.311 34.2441H132.544L131.798 36.6H129.213L133.068 26.0096H135.897L139.664 36.6ZM135.764 32.4126L134.627 28.8529C134.543 28.587 134.484 28.2695 134.45 27.9002H134.39C134.366 28.2104 134.304 28.5181 134.206 28.8234L133.054 32.4126H135.764ZM147.292 36.6H140.985V26.0096H143.371V34.6651H147.292V36.6ZM155.032 36.6H148.725V26.0096H151.111V34.6651H155.032V36.6ZM162.816 36.6H156.465V26.0096H162.573V27.9519H158.85V30.3078H162.314V32.2427H158.85V34.6651H162.816V36.6ZM172.085 27.9519H169.064V36.6H166.671V27.9519H163.666V26.0096H172.085V27.9519Z" fill="white"/>
<path d="M255.081 42.807C261.792 42.807 267.233 37.3664 267.233 30.655C267.233 23.9436 261.792 18.503 255.081 18.503C248.37 18.503 242.929 23.9436 242.929 30.655C242.929 37.3664 248.37 42.807 255.081 42.807Z" fill="#F3BA2F"/>
<path fill-rule="evenodd" clip-rule="evenodd" d="M258.232 31.947L260.065 33.775L255.082 38.752L250.104 33.775L251.937 31.947L255.082 35.091L258.232 31.947ZM255.695 28.797L257.554 30.656L255.695 32.516L253.841 30.662V30.656L254.167 30.33L254.325 30.172L255.695 28.797ZM248.814 28.823L250.647 30.656L248.814 32.484L246.977 30.651L248.814 28.823ZM261.35 28.823L263.183 30.656L261.35 32.484L259.517 30.651L261.35 28.823ZM255.082 22.555L260.06 27.533L258.227 29.366L255.082 26.216L251.937 29.361L250.104 27.533L255.082 22.555Z" fill="#131415"/>
<defs>
<filter id="filter0_d_298_379" x="0" y="0" width="312.519" height="71.527" filterUnits="userSpaceOnUse" color-interpolation-filters="sRGB">
<feFlood flood-opacity="0" result="BackgroundImageFix"/>
<feColorMatrix in="SourceAlpha" type="matrix" values="0 0 0 0 0 0 0 0 0 0 0 0 0 0 0 0 0 0 127 0" result="hardAlpha"/>
<feOffset dy="4"/>
<feGaussianBlur stdDeviation="2"/>
<feComposite in2="hardAlpha" operator="out"/>
<feColorMatrix type="matrix" values="0 0 0 0 0 0 0 0 0 0 0 0 0 0 0 0 0 0 0.25 0"/>
<feBlend mode="normal" in2="BackgroundImageFix" result="effect1_dropShadow_298_379"/>
<feBlend mode="normal" in="SourceGraphic" in2="effect1_dropShadow_298_379" result="shape"/>
</filter>
<linearGradient id="paint0_linear_298_379" x1="156.26" y1="101.643" x2="156.26" y2="-37.1389" gradientUnits="userSpaceOnUse">
<stop stop-color="#24232B"/>
<stop offset="1" stop-color="#4F43B8"/>
</linearGradient>
</defs>
</svg>
