<svg width="2033" height="500" viewBox="0 0 2033 500" fill="none" xmlns="http://www.w3.org/2000/svg">
<path d="M447.596 217.888C444.472 222.37 441.561 227.065 438.791 231.973C432.756 242.43 427.431 253.812 422.745 266.119C420.97 270.814 419.195 275.366 417.42 279.919C416.923 277.643 416.426 275.295 416 273.019C410.746 248.335 405.349 222.797 397.894 196.903C370.7 102.007 289.829 95.32 273.925 93.8261C260.86 92.5457 198.449 91.692 144.843 91.2652C119.495 90.9807 96.1355 90.9095 80.8701 90.8384H46.332V47.9407L80.8701 47.9431C98.6206 48.0854 249.145 48.7968 276.907 51.0731C277.262 51.0731 277.617 51.1443 277.972 51.1443C294.16 52.7093 324.407 52.567 356.074 72.1295C357.849 73.2677 359.624 74.4059 361.399 75.5441C363.245 76.7534 365.02 77.9627 366.795 79.2432C368.641 80.5948 370.487 81.9463 372.334 83.3691C374.393 85.0052 376.452 86.6414 378.44 88.4198C379.079 88.9177 379.718 89.4868 380.357 90.0559C380.499 90.127 380.57 90.2693 380.712 90.3404C381.209 90.7673 381.777 91.2652 382.274 91.7632C382.629 92.0477 382.913 92.3323 383.268 92.6168C383.481 92.8302 383.765 93.0436 383.978 93.1859C384.12 93.3282 384.191 93.4705 384.333 93.6127C384.475 93.6839 384.546 93.755 384.688 93.8973C384.83 93.9684 384.901 94.1107 385.043 94.1818C385.966 95.0355 386.818 95.8891 387.741 96.8139C411.669 120.004 428.851 149.668 439.004 185.094C442.2 196.192 444.969 207.075 447.525 217.888H447.596Z" fill="white"/>
<path d="M743.463 356.106C735.44 390.75 716.056 413.585 699.158 427.527C674.307 448.086 641.22 460.321 607.494 461.673H605.009C589.175 461.673 574.478 460.535 560.988 458.329C548.491 455.982 535.072 451.927 521.297 445.169C496.305 432.934 475.359 414.225 458.603 389.327C455.691 384.917 452.851 380.293 450.153 375.527C444.828 366.137 440.071 355.964 435.811 345.009C443.905 328.577 451.147 311.006 458.39 292.51C463.857 311.788 478.909 341.025 481.678 346.503C482.246 347.57 482.743 348.637 483.311 349.704C502.411 386.41 527.404 404.195 552.183 412.66H552.254C555.733 413.869 559.213 414.865 562.692 415.719C568.017 416.999 573.342 417.924 578.525 418.564H578.596C586.548 419.56 594.146 419.845 601.246 419.845C615.588 419.845 629.789 417.213 642.853 412.304C654 408.107 664.296 402.274 673.1 395.018C677.431 391.461 681.336 387.549 684.815 383.423C685.383 382.711 685.951 382 686.519 381.289C687.087 380.435 687.655 379.51 688.223 378.585C690.637 374.46 692.767 370.263 694.613 365.923C696.034 362.935 697.454 359.734 698.803 356.106H743.463Z" fill="white"/>
<path d="M380.142 89.7716C380.142 89.7716 379.929 89.5581 379.787 89.487C377.373 87.4241 374.89 85.3609 372.334 83.3691C370.487 81.9463 368.641 80.5948 366.795 79.2432C365.02 77.9627 363.245 76.7534 361.399 75.5441C362.535 76.1132 363.67 76.8959 364.735 77.6072C370.486 81.4486 375.742 85.7877 380.712 90.3404C380.712 90.3404 380.781 90.3407 380.852 90.4118C383.195 92.5459 385.54 94.6086 387.741 96.8139C385.327 94.3241 382.698 92.0479 380.142 89.7716Z" fill="white"/>
<path d="M382.274 91.7632C380.996 90.5539 379.718 89.4868 378.44 88.4198C376.452 86.6414 374.393 85.0052 372.334 83.3691C370.487 81.9463 368.641 80.5948 366.795 79.2432C365.02 77.9627 363.245 76.7534 361.399 75.5441C362.535 76.1132 363.67 76.8959 364.735 77.6072C370.202 81.3775 375.314 85.5034 380.142 89.7716C380.355 89.985 380.639 90.1984 380.852 90.4118C383.195 92.5459 385.54 94.6086 387.741 96.8139C386.037 95.0355 384.12 93.4705 382.274 91.7632Z" fill="white"/>
<path d="M382.274 91.7632C380.996 90.5539 379.718 89.4868 378.44 88.4198C378.866 88.7043 379.361 89.0602 379.787 89.487C380.142 89.7716 380.497 90.0561 380.852 90.4118C381.349 90.8386 381.777 91.2652 382.274 91.7632Z" fill="white"/>
<path d="M1503.96 461.317H1458.31V154.719H1503.82V203.163C1504.39 203.305 1504.96 203.448 1505.53 203.59C1506.38 202.523 1507.3 201.456 1508.15 200.389C1531.3 169.444 1561.62 154.861 1598.33 154.719C1602.3 154.719 1606.35 154.861 1610.4 155.146C1627.58 156.498 1644.12 160.054 1659.39 168.591C1681.97 181.182 1695.03 201.029 1702.2 225.286C1707.6 243.355 1708.88 261.922 1708.88 280.631C1708.88 338.18 1708.88 395.729 1708.88 453.279V461.317H1662.87V285.681C1662.87 272.165 1661.87 258.792 1658.46 245.632C1650.8 216.323 1629.78 198.183 1599.6 194.911C1589.02 193.773 1578.37 193.133 1567.94 195.694C1535.92 203.661 1517.31 225.215 1508.08 255.875C1504.96 266.332 1503.89 277.216 1503.89 288.171C1503.89 342.591 1503.89 397.081 1503.89 451.5V461.317H1503.96Z" fill="white"/>
<path d="M1060.34 385.912C1059.28 376.665 1058.21 367.346 1056.01 358.312C1048.98 329.715 1030.88 311.361 1002.97 302.612C1000.2 301.758 997.436 300.833 994.667 299.908C997.365 297.846 999.85 297.134 1002.26 296.352C1030.45 286.962 1050.9 268.822 1061.34 240.865C1072.91 209.779 1070.99 140.065 1057.65 109.974C1046.14 84.1516 1025.34 68.1459 999.353 58.4002C978.194 50.4329 956.112 48.0143 933.747 47.9432C890.862 47.872 848.047 47.872 805.162 47.9432V89.9848C806.724 89.6291 808.215 89.2734 809.635 89.2734C852.307 89.2734 895.051 89.06 937.723 89.7003C949.012 89.8425 964.917 91.123 972.017 93.9684C1021.72 113.887 1023.35 159.129 1023.35 185.379C1023.35 202.523 1021.29 213.762 1017.67 227.563C1011.71 250.113 981.815 282.48 937.865 285.468C894.483 288.384 805.091 285.468 805.091 285.468V321.605C805.091 321.605 888.518 321.321 926.86 321.605C937.155 321.676 947.592 320.04 957.746 321.819C985.791 326.798 1004.68 345.294 1011.57 373.748C1012.63 378.23 1013.48 382.854 1013.91 387.549C1016.11 408.961 1025.77 442.679 1033.15 456.124C1035.07 459.681 1037.48 461.317 1041.74 461.246C1054.95 460.961 1068.15 461.175 1081.36 461.104C1082.92 461.104 1084.56 460.535 1086.83 460.108C1075.32 444.671 1062.69 406.827 1060.34 385.912Z" fill="white"/>
<path d="M1399.88 273.019C1399.8 260.428 1398.74 247.552 1396.11 235.246C1388.09 197.543 1365.72 172.148 1328.31 161.762C1291.81 151.589 1255.03 152.372 1218.96 163.896C1181.83 175.776 1158.11 200.958 1148.31 238.874C1147.75 241.008 1147.68 243.213 1147.32 245.916C1162.8 247.054 1177.43 248.121 1191.84 249.188C1192.48 247.481 1192.9 246.556 1193.19 245.56C1201.35 217.888 1220.59 202.452 1247.86 196.121C1265.75 191.995 1283.86 192.137 1301.82 195.765C1318.93 199.251 1333.49 207.147 1342.86 222.583C1354.29 241.434 1354.43 264.412 1353.79 286.25C1350.17 286.25 1347.4 286.25 1344.64 286.25C1332.57 286.179 1283.57 285.112 1253.11 287.104C1182.96 291.799 1162.3 314.563 1152.5 329.573C1142.99 344.156 1139.16 360.375 1138.8 377.519C1138.23 404.408 1148.1 426.532 1169.69 442.964C1185.66 455.128 1203.98 460.748 1223.72 462.313C1275.91 466.368 1318.51 457.12 1352.87 416.857C1353.65 415.932 1354.01 414.581 1354.58 413.442C1355.29 413.798 1356.07 414.154 1356.78 414.581V461.815H1399.59C1399.73 458.756 1399.95 456.48 1399.95 454.204C1399.95 393.809 1400.16 333.414 1399.8 273.019H1399.88ZM1341.87 383.423C1320.57 413.442 1293.09 423.473 1256.17 426.247C1245.02 427.101 1233.87 426.887 1223.15 423.259C1218.25 421.623 1213.35 419.702 1208.95 417.213C1190.85 406.969 1183.46 389.967 1187.01 368.342C1190.35 347.926 1198.73 321.89 1260.64 321.676C1281.44 321.605 1327.03 321.961 1351.45 322.53C1351.95 322.53 1352.45 322.032 1353.79 322.53C1354.86 344.867 1355.64 364.216 1342.01 383.494L1341.87 383.423Z" fill="white"/>
<path d="M749.213 322.388L555.306 322.459V286.25H701.996C700.15 265.479 695.748 246.201 685.169 228.843C684.601 227.847 684.033 226.923 683.394 225.998C679.347 220.947 674.731 216.323 669.548 212.055C660.389 204.657 649.739 198.681 638.236 194.413C624.675 189.363 609.978 186.731 595.209 186.731C582.997 186.731 569.364 187.584 555.306 190.928C526.337 197.828 495.664 215.47 473.085 258.294C469.393 265.336 465.914 273.019 462.648 281.484C462.435 282.125 462.151 282.765 461.938 283.405C460.731 286.464 459.597 289.523 458.39 292.51C451.147 311.006 443.904 328.577 435.809 344.938L434.318 347.926C421.822 372.468 407.338 394.093 388.096 411.593C351.175 445.312 299.13 461.104 224.436 461.317C219.537 461.317 214.425 461.388 209.313 461.388C153.931 461.388 87.1183 460.535 80.8701 460.464L80.8703 435.679L81.0121 417.568C81.4381 417.639 109.626 417.995 144.843 418.209C170.262 418.422 199.373 418.564 224.294 418.493C288.622 418.28 330.3 406.4 359.34 379.937C384.83 356.676 400.805 322.316 417.42 279.919C419.195 275.366 420.97 270.814 422.745 266.119C427.431 253.812 432.756 242.43 438.791 231.973C441.561 227.065 444.472 222.37 447.596 217.888C464.92 192.421 486.576 173.357 512.492 160.837C527.331 153.652 541.816 149.455 555.306 147.036C570.074 144.404 583.636 143.835 595.209 143.835C632.272 143.835 669.193 156.64 696.529 178.834C717.901 196.263 747.863 230.479 749.213 305.244C749.284 310.152 749.213 322.388 749.213 322.388Z" fill="white"/>
<path d="M1988.77 213.478V47.9432H2032.43V460.321H1991.32V408.747C1988.7 411.806 1987.42 413.016 1986.42 414.438C1966.54 444.885 1938.14 459.894 1902.21 461.246C1871.9 462.384 1843.5 456.551 1818.86 437.7C1801.04 424.113 1787.55 406.898 1779.31 386.197C1758.51 333.841 1757.73 281.129 1781.01 229.483C1794.36 199.891 1815.59 176.842 1846.98 165.176C1870.55 156.426 1894.9 154.719 1919.33 160.268C1945.53 166.243 1964.91 182.32 1979.89 204.159C1982.09 207.36 1984.22 210.703 1986.42 213.976C1987.2 213.762 1987.91 213.549 1988.7 213.335L1988.77 213.478ZM1989.41 309.512C1989.97 291.443 1987.63 272.521 1981.03 254.168C1961.22 199.037 1904.77 177.198 1855.35 205.653C1834.98 217.39 1822.83 235.815 1816.73 257.867C1806.86 293.506 1807.36 329.359 1818.08 364.785C1823.19 381.573 1832.21 396.227 1846.19 407.253C1888.09 440.403 1951.99 426.247 1975.84 378.443C1986.49 357.173 1989.69 334.339 1989.41 309.512Z" fill="white"/>
<path d="M61.776 197.391C61.776 185.427 71.4564 175.728 83.3977 175.728C95.3389 175.728 105.019 185.427 105.019 197.391V302.609C105.019 314.573 95.3389 324.272 83.3977 324.272C71.4564 324.272 61.776 314.573 61.776 302.609V197.391Z" fill="white"/>
<path d="M0 64.3211L101.93 0V128.642L0 64.3211Z" fill="white"/>
<path d="M0 435.679L101.93 371.358V500L0 435.679Z" fill="white"/>
</svg>
