<svg width="246" height="63" viewBox="0 0 246 63" fill="none" xmlns="http://www.w3.org/2000/svg">
<path d="M91.1197 44.1283C90.1603 48.4419 87.8424 51.2852 85.8218 53.0212C82.8502 55.5811 78.8937 57.1046 74.8608 57.2729H74.5636C72.6703 57.2729 70.9128 57.1311 69.2997 56.8566C67.8054 56.5643 66.2007 56.0594 64.5536 55.2179C61.565 53.6944 59.0604 51.3649 57.0567 48.2647C56.7086 47.7156 56.369 47.1398 56.0464 46.5464C55.4096 45.3772 54.8407 44.1105 54.3313 42.7465C55.2992 40.7004 56.1652 38.5126 57.0312 36.2096C57.685 38.61 59.4849 42.2504 59.816 42.9325C59.884 43.0653 59.9434 43.1982 60.0113 43.3311C62.2952 47.9016 65.2838 50.116 68.2469 51.17H68.2554C68.6714 51.3206 69.0874 51.4446 69.5034 51.5509C70.1402 51.7103 70.777 51.8255 71.3968 51.9052H71.4053C72.3562 52.0292 73.2646 52.0646 74.1137 52.0646C75.8287 52.0646 77.5268 51.7369 79.089 51.1257C80.4219 50.6031 81.653 49.8768 82.7058 48.9733C83.2237 48.5305 83.6907 48.0433 84.1067 47.5296C84.1746 47.441 84.2426 47.3524 84.3105 47.2638C84.3784 47.1575 84.4463 47.0424 84.5143 46.9272C84.8029 46.4135 85.0576 45.8909 85.2784 45.3506C85.4482 44.9786 85.618 44.58 85.7793 44.1283H91.1197Z" fill="#403885"/>
<path d="M55.7387 26.9181C55.3651 27.4761 55.017 28.0607 54.6859 28.6719C53.9642 29.974 53.3274 31.3912 52.7671 32.9235C52.5548 33.5081 52.3426 34.075 52.1303 34.6419C52.0709 34.3585 52.0114 34.0662 51.9605 33.7827C51.3322 30.7092 50.687 27.5293 49.7955 24.3051C46.5437 12.4892 36.8733 11.6565 34.9714 11.4705C33.4092 11.3111 25.9463 11.2048 19.5361 11.1517C16.5051 11.1162 13.7118 11.1074 11.8864 11.0985V16.8294L0 8.41468L11.8864 0V5.75741C14.009 5.77513 32.0083 5.8637 35.328 6.14715C35.3705 6.14715 35.4129 6.156 35.4554 6.156C37.3912 6.35087 41.008 6.33315 44.7947 8.76898C45.007 8.9107 45.2192 9.05242 45.4315 9.19415C45.6522 9.34472 45.8645 9.4953 46.0767 9.65474C46.2975 9.82303 46.5182 9.99133 46.739 10.1685C46.9852 10.3722 47.2314 10.5759 47.4691 10.7974C47.5455 10.8594 47.622 10.9302 47.6984 11.0011C47.7154 11.0099 47.7238 11.0277 47.7408 11.0365C47.8003 11.0897 47.8682 11.1517 47.9276 11.2137C47.9701 11.2491 48.004 11.2845 48.0465 11.32C48.0719 11.3465 48.1059 11.3731 48.1314 11.3908C48.1484 11.4085 48.1568 11.4263 48.1738 11.444C48.1908 11.4528 48.1993 11.4617 48.2163 11.4794C48.2333 11.4883 48.2418 11.506 48.2587 11.5148C48.3691 11.6211 48.471 11.7274 48.5814 11.8426C51.4426 14.7301 53.4972 18.4237 54.7113 22.8348C55.0934 24.2166 55.4245 25.5718 55.7302 26.9181H55.7387Z" fill="#403885"/>
<path d="M182.057 57.23H176.598V19.0539H182.04V25.0859C182.108 25.1036 182.176 25.1214 182.244 25.1391C182.346 25.0062 182.456 24.8733 182.558 24.7405C185.326 20.8874 188.951 19.0716 193.341 19.0539C193.816 19.0539 194.3 19.0716 194.784 19.1071C196.838 19.2754 198.817 19.7182 200.642 20.7812C203.342 22.3489 204.904 24.8202 205.762 27.8406C206.407 30.0904 206.56 32.4023 206.56 34.7318C206.56 41.8976 206.56 49.0633 206.56 56.2291V57.23H201.058V35.3607C201.058 33.6778 200.939 32.0125 200.532 30.3739C199.615 26.7246 197.102 24.4659 193.493 24.0584C192.228 23.9167 190.955 23.837 189.707 24.1559C185.878 25.1479 183.653 27.8318 182.549 31.6494C182.176 32.9514 182.048 34.3067 182.048 35.6707C182.048 42.4467 182.048 49.2316 182.048 56.0077V57.23H182.057Z" fill="url(#paint0_linear_422_463)"/>
<path d="M129.01 47.841C128.882 46.6895 128.755 45.5292 128.492 44.4042C127.651 40.8435 125.486 38.5583 122.15 37.4688C121.818 37.3625 121.487 37.2473 121.156 37.1322C121.479 36.8753 121.776 36.7867 122.065 36.6893C125.435 35.5201 127.88 33.2614 129.129 29.7804C130.512 25.9097 130.283 17.2293 128.687 13.4825C127.312 10.2672 124.824 8.27426 121.717 7.06078C119.186 6.06873 116.546 5.76758 113.872 5.75872C108.743 5.74986 103.624 5.74986 98.4957 5.75872V10.9935C98.6824 10.9492 98.8607 10.905 99.0305 10.905C104.133 10.905 109.244 10.8784 114.347 10.9581C115.697 10.9758 117.599 11.1353 118.448 11.4896C124.391 13.9697 124.586 19.6031 124.586 22.8715C124.586 25.0062 124.34 26.4057 123.907 28.1241C123.194 30.9319 119.619 34.9621 114.364 35.3341C109.176 35.6973 98.4872 35.3341 98.4872 35.3341V39.8337C98.4872 39.8337 108.463 39.7983 113.048 39.8337C114.279 39.8426 115.527 39.6389 116.741 39.8603C120.095 40.4804 122.353 42.7833 123.177 46.3263C123.304 46.8844 123.406 47.4601 123.457 48.0447C123.72 50.7108 124.875 54.9093 125.758 56.5834C125.987 57.0263 126.276 57.23 126.785 57.2211C128.364 57.1857 129.944 57.2123 131.523 57.2034C131.71 57.2034 131.905 57.1326 132.177 57.0794C130.801 55.1573 129.29 50.4451 129.01 47.841Z" fill="url(#paint1_linear_422_463)"/>
<path d="M169.61 33.7841C169.602 32.2163 169.474 30.6131 169.16 29.0807C168.201 24.3862 165.526 21.224 161.052 19.9308C156.688 18.6642 152.29 18.7616 147.977 20.1966C143.537 21.6758 140.701 24.8113 139.529 29.5324C139.461 29.7982 139.453 30.0727 139.41 30.4093C141.261 30.551 143.01 30.6839 144.734 30.8168C144.81 30.6042 144.861 30.489 144.895 30.365C145.871 26.9194 148.172 24.9974 151.432 24.209C153.572 23.6953 155.737 23.713 157.885 24.1647C159.931 24.5988 161.672 25.582 162.792 27.504C164.159 29.8513 164.176 32.7123 164.1 35.4316C163.667 35.4316 163.336 35.4316 163.005 35.4316C161.561 35.4227 155.703 35.2898 152.061 35.5379C143.672 36.1225 141.202 38.9569 140.03 40.8258C138.892 42.6416 138.434 44.6611 138.391 46.7958C138.324 50.144 139.504 52.8987 142.085 54.9448C143.995 56.4594 146.186 57.1592 148.546 57.354C154.786 57.8589 159.88 56.7074 163.99 51.694C164.083 51.5789 164.125 51.4106 164.193 51.2689C164.278 51.3132 164.372 51.3575 164.457 51.4106V57.292H169.576C169.593 56.9111 169.619 56.6277 169.619 56.3443C169.619 48.8242 169.644 41.3041 169.602 33.7841H169.61ZM162.674 47.531C160.127 51.2689 156.841 52.5178 152.426 52.8632C151.093 52.9695 149.76 52.943 148.478 52.4912C147.892 52.2875 147.306 52.0483 146.78 51.7383C144.615 50.4628 143.732 48.3459 144.156 45.6532C144.555 43.1111 145.557 39.8692 152.961 39.8426C155.448 39.8338 160.899 39.8781 163.82 39.9489C163.879 39.9489 163.939 39.8869 164.1 39.9489C164.227 42.7302 164.321 45.1394 162.691 47.5398L162.674 47.531Z" fill="url(#paint2_linear_422_463)"/>
<path d="M91.8053 39.9312L68.6184 39.9401V35.4316H86.1593C85.9386 32.8452 85.4121 30.4448 84.1471 28.2835C84.0792 28.1595 84.0113 28.0444 83.9348 27.9292C83.4509 27.3003 82.899 26.7246 82.2792 26.1931C81.184 25.2719 79.9105 24.5279 78.535 23.9964C76.9134 23.3676 75.1559 23.0398 73.3899 23.0398C71.9296 23.0398 70.2995 23.1461 68.6184 23.5624C65.1544 24.4216 61.4866 26.6183 58.7866 31.9505C58.3452 32.8274 57.9291 33.7841 57.5386 34.8381C57.5131 34.9178 57.4791 34.9975 57.4537 35.0773C57.3093 35.4581 57.1735 35.839 57.0292 36.211C56.1632 38.514 55.2971 40.7018 54.3293 42.739L54.151 43.1111C52.6567 46.1669 50.9247 48.8596 48.6238 51.0386C44.2089 55.2371 37.9855 57.2034 29.0537 57.23C28.4679 57.23 27.8566 57.2389 27.2453 57.2389C20.6229 57.2389 12.6335 57.1326 11.8864 57.1237V62.89L0 54.4753L11.8864 46.0606V52.7215L11.9034 51.7826C11.9543 51.7915 15.3249 51.8358 19.5361 51.8623C22.5756 51.8889 26.0566 51.9066 29.0367 51.8978C36.7289 51.8712 41.7127 50.392 45.1852 47.097C48.2332 44.2005 50.1436 39.9223 52.1303 34.6432C52.3425 34.0764 52.5548 33.5095 52.7671 32.9249C53.3274 31.3925 53.9642 29.9753 54.6859 28.6732C55.017 28.0621 55.3651 27.4775 55.7386 26.9194C57.8103 23.7484 60.3998 21.3746 63.4988 19.8157C65.2732 18.9211 67.0052 18.3985 68.6184 18.0973C70.3844 17.7696 72.006 17.6987 73.3899 17.6987C77.8218 17.6987 82.2368 19.2931 85.5055 22.0566C88.0611 24.2267 91.644 28.4872 91.8053 37.7965C91.8138 38.4077 91.8053 39.9312 91.8053 39.9312Z" fill="url(#paint3_linear_422_463)"/>
<path d="M240.028 26.3703V5.75872H245.25V57.106H240.334V50.6843C240.02 51.0651 239.867 51.2157 239.748 51.3929C237.371 55.1839 233.975 57.0529 229.679 57.2211C226.054 57.3629 222.657 56.6365 219.711 54.2893C217.58 52.5975 215.967 50.454 214.982 47.8764C212.495 41.3573 212.401 34.7938 215.186 28.3632C216.782 24.6785 219.321 21.8086 223.073 20.356C225.892 19.2665 228.804 19.0539 231.725 19.7448C234.858 20.4888 237.176 22.4907 238.967 25.2099C239.23 25.6085 239.485 26.0248 239.748 26.4323C239.842 26.4057 239.927 26.3791 240.02 26.3525L240.028 26.3703ZM240.105 38.328C240.173 36.0782 239.893 33.722 239.103 31.4368C236.734 24.5722 229.985 21.8529 224.075 25.3959C221.639 26.8574 220.187 29.1515 219.457 31.8974C218.276 36.335 218.336 40.7992 219.618 45.2103C220.229 47.3007 221.307 49.1253 222.98 50.4983C227.989 54.6259 235.631 52.8632 238.483 46.9109C239.757 44.2625 240.139 41.4193 240.105 38.328Z" fill="url(#paint4_linear_422_463)"/>
<defs>
<linearGradient id="paint0_linear_422_463" x1="137.953" y1="36.6852" x2="123.093" y2="118.176" gradientUnits="userSpaceOnUse">
<stop stop-color="#281E81"/>
<stop offset="0.475" stop-color="#A6A1D1" stop-opacity="0.99525"/>
<stop offset="1" stop-color="#DAD7F6" stop-opacity="0.99"/>
</linearGradient>
<linearGradient id="paint1_linear_422_463" x1="137.953" y1="36.6852" x2="123.093" y2="118.176" gradientUnits="userSpaceOnUse">
<stop stop-color="#281E81"/>
<stop offset="0.475" stop-color="#A6A1D1" stop-opacity="0.99525"/>
<stop offset="1" stop-color="#DAD7F6" stop-opacity="0.99"/>
</linearGradient>
<linearGradient id="paint2_linear_422_463" x1="137.953" y1="36.6852" x2="123.093" y2="118.176" gradientUnits="userSpaceOnUse">
<stop stop-color="#281E81"/>
<stop offset="0.475" stop-color="#A6A1D1" stop-opacity="0.99525"/>
<stop offset="1" stop-color="#DAD7F6" stop-opacity="0.99"/>
</linearGradient>
<linearGradient id="paint3_linear_422_463" x1="137.953" y1="36.6852" x2="123.093" y2="118.176" gradientUnits="userSpaceOnUse">
<stop stop-color="#281E81"/>
<stop offset="0.475" stop-color="#A6A1D1" stop-opacity="0.99525"/>
<stop offset="1" stop-color="#DAD7F6" stop-opacity="0.99"/>
</linearGradient>
<linearGradient id="paint4_linear_422_463" x1="137.953" y1="36.6852" x2="123.093" y2="118.176" gradientUnits="userSpaceOnUse">
<stop stop-color="#281E81"/>
<stop offset="0.475" stop-color="#A6A1D1" stop-opacity="0.99525"/>
<stop offset="1" stop-color="#DAD7F6" stop-opacity="0.99"/>
</linearGradient>
</defs>
</svg>
