<svg width="246" height="63" viewBox="0 0 246 63" fill="none" xmlns="http://www.w3.org/2000/svg">
<path d="M91.1204 44.1294C90.161 48.4431 87.8431 51.2864 85.8225 53.0225C82.8509 55.5824 78.8944 57.106 74.8615 57.2743H74.5644C72.671 57.2743 70.9135 57.1325 69.3004 56.8579C67.8061 56.5656 66.2014 56.0607 64.5543 55.2193C61.5657 53.6957 59.0611 51.3661 57.0574 48.2659C56.7093 47.7167 56.3697 47.141 56.0471 46.5475C55.4103 45.3783 54.8414 44.1116 54.332 42.7475C55.2999 40.7014 56.1659 38.5135 57.0319 36.2105C57.6857 38.611 59.4856 42.2515 59.8167 42.9336C59.8847 43.0664 59.9441 43.1993 60.012 43.3322C62.2959 47.9028 65.2845 50.1172 68.2476 51.1713H68.2561C68.6721 51.3218 69.0881 51.4459 69.5042 51.5521C70.1409 51.7116 70.7777 51.8267 71.3975 51.9065H71.406C72.3569 52.0305 73.2653 52.0659 74.1144 52.0659C75.8294 52.0659 77.5275 51.7382 79.0897 51.127C80.4226 50.6044 81.6537 49.878 82.7065 48.9745C83.2244 48.5317 83.6914 48.0445 84.1074 47.5307C84.1753 47.4422 84.2433 47.3536 84.3112 47.265C84.3791 47.1587 84.447 47.0436 84.515 46.9284C84.8036 46.4147 85.0583 45.892 85.2791 45.3517C85.4489 44.9797 85.6187 44.5811 85.78 44.1294H91.1204Z" fill="#403885"/>
<path d="M55.7387 26.9187C55.3651 27.4767 55.017 28.0614 54.6859 28.6725C53.9642 29.9746 53.3274 31.3919 52.7671 32.9243C52.5548 33.5089 52.3425 34.0758 52.1303 34.6427C52.0709 34.3592 52.0114 34.0669 51.9605 33.7835C51.3322 30.7098 50.6869 27.5299 49.7955 24.3057C46.5437 12.4894 36.8733 11.6568 34.9714 11.4708C33.4092 11.3113 25.9463 11.2051 19.5361 11.1519C16.5051 11.1165 13.7118 11.1076 11.8864 11.0988V16.8297L0 8.41486L11.8864 0V5.75754C14.009 5.77525 32.0083 5.86383 35.328 6.14728C35.3705 6.14728 35.4129 6.15614 35.4554 6.15614C37.3912 6.35101 41.008 6.33329 44.7947 8.76917C45.0069 8.9109 45.2192 9.05262 45.4315 9.19434C45.6522 9.34493 45.8645 9.49551 46.0767 9.65495C46.2975 9.82324 46.5182 9.99154 46.739 10.1687C46.9852 10.3724 47.2314 10.5762 47.4691 10.7976C47.5455 10.8596 47.622 10.9305 47.6984 11.0013C47.7153 11.0102 47.7238 11.0279 47.7408 11.0368C47.8002 11.0899 47.8682 11.1519 47.9276 11.2139C47.9701 11.2493 48.004 11.2848 48.0465 11.3202C48.0719 11.3468 48.1059 11.3734 48.1314 11.3911C48.1483 11.4088 48.1568 11.4265 48.1738 11.4442C48.1908 11.4531 48.1993 11.4619 48.2163 11.4796C48.2333 11.4885 48.2417 11.5062 48.2587 11.5151C48.3691 11.6214 48.471 11.7277 48.5814 11.8428C51.4426 14.7304 53.4972 18.4241 54.7113 22.8353C55.0934 24.2171 55.4245 25.5723 55.7302 26.9187H55.7387Z" fill="#403885"/>
<path d="M182.057 57.2299H176.598V19.053H182.04V25.0851C182.108 25.1028 182.176 25.1205 182.244 25.1383C182.346 25.0054 182.456 24.8725 182.558 24.7397C185.326 20.8865 188.951 19.0707 193.34 19.053C193.816 19.053 194.3 19.0707 194.784 19.1061C196.838 19.2744 198.817 19.7173 200.642 20.7802C203.342 22.3481 204.904 24.8194 205.762 27.8399C206.407 30.0897 206.56 32.4016 206.56 34.7312C206.56 41.8971 206.56 49.063 206.56 56.229V57.2299H201.058V35.3601C201.058 33.6771 200.939 32.0119 200.532 30.3732C199.615 26.7238 197.102 24.4651 193.493 24.0576C192.228 23.9159 190.955 23.8362 189.707 24.155C185.878 25.1471 183.653 27.831 182.549 31.6487C182.176 32.9508 182.048 34.306 182.048 35.6701C182.048 42.4463 182.048 49.2313 182.048 56.0075V57.2299H182.057Z" fill="url(#paint0_linear_176_473)"/>
<path d="M129.01 47.8407C128.882 46.6891 128.755 45.5288 128.492 44.4038C127.651 40.843 125.486 38.5577 122.15 37.4682C121.818 37.3619 121.487 37.2468 121.156 37.1316C121.479 36.8748 121.776 36.7862 122.065 36.6887C125.435 35.5195 127.88 33.2608 129.129 29.7797C130.512 25.9089 130.283 17.2283 128.687 13.4814C127.312 10.2661 124.824 8.27308 121.717 7.05957C119.186 6.0675 116.546 5.76634 113.872 5.75748C108.743 5.74862 103.624 5.74862 98.4957 5.75748V10.9924C98.6824 10.9481 98.8607 10.9038 99.0305 10.9038C104.133 10.9038 109.244 10.8773 114.347 10.957C115.697 10.9747 117.599 11.1341 118.448 11.4884C124.391 13.9686 124.586 19.6021 124.586 22.8707C124.586 25.0054 124.34 26.4049 123.907 28.1233C123.194 30.9312 119.619 34.9615 114.364 35.3335C109.176 35.6967 98.4872 35.3335 98.4872 35.3335V39.8332C98.4872 39.8332 108.463 39.7978 113.048 39.8332C114.279 39.8421 115.527 39.6384 116.741 39.8598C120.095 40.4799 122.353 42.7829 123.177 46.326C123.304 46.884 123.406 47.4598 123.457 48.0444C123.72 50.7106 124.875 54.9091 125.758 56.5833C125.987 57.0261 126.276 57.2299 126.785 57.221C128.364 57.1856 129.944 57.2122 131.523 57.2033C131.71 57.2033 131.905 57.1324 132.177 57.0793C130.801 55.1572 129.29 50.4448 129.01 47.8407Z" fill="url(#paint1_linear_176_473)"/>
<path d="M169.61 33.7834C169.602 32.2156 169.474 30.6124 169.16 29.08C168.201 24.3854 165.526 21.2231 161.052 19.9299C156.688 18.6632 152.29 18.7607 147.977 20.1956C143.537 21.6749 140.701 24.8105 139.529 29.5317C139.461 29.7974 139.453 30.072 139.41 30.4086C141.261 30.5503 143.01 30.6832 144.734 30.8161C144.81 30.6035 144.861 30.4883 144.895 30.3643C145.871 26.9187 148.172 24.9965 151.432 24.2082C153.572 23.6944 155.737 23.7122 157.885 24.1639C159.931 24.5979 161.672 25.5811 162.792 27.5033C164.159 29.8506 164.176 32.7116 164.1 35.431C163.667 35.431 163.336 35.431 163.005 35.431C161.561 35.4221 155.703 35.2892 152.061 35.5373C143.672 36.1219 141.202 38.9564 140.03 40.8253C138.892 42.6412 138.434 44.6607 138.391 46.7955C138.324 50.1437 139.504 52.8984 142.085 54.9446C143.995 56.4593 146.186 57.159 148.546 57.3539C154.786 57.8588 159.88 56.7073 163.99 51.6938C164.083 51.5786 164.125 51.4103 164.193 51.2686C164.278 51.3129 164.372 51.3572 164.457 51.4104V57.2919H169.576C169.593 56.911 169.619 56.6276 169.619 56.3441C169.619 48.8239 169.644 41.3037 169.602 33.7834H169.61ZM162.674 47.5307C160.127 51.2686 156.841 52.5176 152.426 52.863C151.093 52.9693 149.76 52.9427 148.478 52.491C147.892 52.2873 147.306 52.0481 146.78 51.7381C144.615 50.4626 143.732 48.3456 144.156 45.6528C144.555 43.1106 145.557 39.8687 152.961 39.8421C155.448 39.8333 160.899 39.8776 163.82 39.9484C163.879 39.9484 163.939 39.8864 164.1 39.9484C164.227 42.7298 164.321 45.1391 162.691 47.5395L162.674 47.5307Z" fill="url(#paint2_linear_176_473)"/>
<path d="M91.8053 39.9307L68.6184 39.9396V35.431H86.1593C85.9385 32.8445 85.4121 30.444 84.1471 28.2828C84.0792 28.1588 84.0113 28.0436 83.9348 27.9284C83.4509 27.2995 82.899 26.7238 82.2792 26.1923C81.184 25.2711 79.9105 24.5271 78.535 23.9956C76.9134 23.3667 75.1559 23.039 73.3899 23.039C71.9296 23.039 70.2995 23.1453 68.6184 23.5616C65.1544 24.4208 61.4866 26.6175 58.7866 31.9499C58.3452 32.8268 57.9291 33.7834 57.5386 34.8375C57.5131 34.9172 57.4791 34.9969 57.4537 35.0767C57.3093 35.4575 57.1735 35.8384 57.0292 36.2104C56.1632 38.5135 55.2971 40.7013 54.3293 42.7386L54.151 43.1106C52.6567 46.1666 50.9247 48.8593 48.6238 51.0383C44.2089 55.2369 37.9855 57.2033 29.0537 57.2299C28.4679 57.2299 27.8566 57.2387 27.2453 57.2387C20.6229 57.2387 12.6335 57.1325 11.8864 57.1236V62.89L0 54.4751L11.8864 46.0603V52.7213L11.9034 51.7824C11.9543 51.7912 15.3249 51.8355 19.5361 51.8621C22.5756 51.8887 26.0566 51.9064 29.0367 51.8975C36.7289 51.8709 41.7127 50.3917 45.1852 47.0966C48.2332 44.2001 50.1436 39.9218 52.1303 34.6426C52.3425 34.0757 52.5548 33.5088 52.7671 32.9242C53.3274 31.3918 53.9642 29.9746 54.6858 28.6725C55.017 28.0613 55.3651 27.4767 55.7386 26.9187C57.8103 23.7476 60.3998 21.3737 63.4988 19.8147C65.2732 18.9201 67.0052 18.3975 68.6184 18.0963C70.3844 17.7686 72.006 17.6977 73.3899 17.6977C77.8218 17.6977 82.2368 19.2921 85.5055 22.0558C88.0611 24.2259 91.644 28.4865 91.8053 37.796C91.8138 38.4072 91.8053 39.9307 91.8053 39.9307Z" fill="url(#paint3_linear_176_473)"/>
<path d="M240.028 26.3695V5.75749H245.25V57.1059H240.334V50.684C240.02 51.0649 239.867 51.2155 239.748 51.3926C237.371 55.1837 233.975 57.0527 229.679 57.221C226.053 57.3627 222.657 56.6364 219.711 54.2891C217.58 52.5973 215.967 50.4537 214.982 47.8761C212.495 41.3568 212.401 34.7932 215.186 28.3625C216.782 24.6776 219.321 21.8077 223.073 20.3551C225.892 19.2656 228.804 19.053 231.725 19.7439C234.858 20.4879 237.176 22.4898 238.967 25.2091C239.23 25.6077 239.485 26.024 239.748 26.4315C239.842 26.4049 239.927 26.3783 240.02 26.3518L240.028 26.3695ZM240.105 38.3274C240.173 36.0776 239.893 33.7214 239.103 31.4361C236.734 24.5714 229.984 21.852 224.075 25.3951C221.639 26.8566 220.187 29.1508 219.457 31.8967C218.276 36.3344 218.336 40.7987 219.618 45.2099C220.229 47.3003 221.307 49.125 222.98 50.498C227.989 54.6257 235.631 52.863 238.483 46.9106C239.757 44.2621 240.139 41.4188 240.105 38.3274Z" fill="url(#paint4_linear_176_473)"/>
<defs>
<linearGradient id="paint0_linear_176_473" x1="122.625" y1="5.75084" x2="122.625" y2="53.6531" gradientUnits="userSpaceOnUse">
<stop stop-color="#554CA7"/>
<stop offset="0.475" stop-color="#A6A1D1" stop-opacity="0.99525"/>
<stop offset="1" stop-color="white" stop-opacity="0.99"/>
</linearGradient>
<linearGradient id="paint1_linear_176_473" x1="122.625" y1="5.75084" x2="122.625" y2="53.6531" gradientUnits="userSpaceOnUse">
<stop stop-color="#554CA7"/>
<stop offset="0.475" stop-color="#A6A1D1" stop-opacity="0.99525"/>
<stop offset="1" stop-color="white" stop-opacity="0.99"/>
</linearGradient>
<linearGradient id="paint2_linear_176_473" x1="122.625" y1="5.75084" x2="122.625" y2="53.6531" gradientUnits="userSpaceOnUse">
<stop stop-color="#554CA7"/>
<stop offset="0.475" stop-color="#A6A1D1" stop-opacity="0.99525"/>
<stop offset="1" stop-color="white" stop-opacity="0.99"/>
</linearGradient>
<linearGradient id="paint3_linear_176_473" x1="122.625" y1="5.75084" x2="122.625" y2="53.6531" gradientUnits="userSpaceOnUse">
<stop stop-color="#554CA7"/>
<stop offset="0.475" stop-color="#A6A1D1" stop-opacity="0.99525"/>
<stop offset="1" stop-color="white" stop-opacity="0.99"/>
</linearGradient>
<linearGradient id="paint4_linear_176_473" x1="122.625" y1="5.75084" x2="122.625" y2="53.6531" gradientUnits="userSpaceOnUse">
<stop stop-color="#554CA7"/>
<stop offset="0.475" stop-color="#A6A1D1" stop-opacity="0.99525"/>
<stop offset="1" stop-color="white" stop-opacity="0.99"/>
</linearGradient>
</defs>
</svg>
