<svg width="289" height="71" viewBox="0 0 289 71" fill="none" xmlns="http://www.w3.org/2000/svg">
<path d="M65.65 30.39C65.21 31.02 64.8 31.68 64.41 32.37C63.56 33.84 62.81 35.44 62.15 37.17C61.9 37.83 61.65 38.47 61.4 39.11C61.33 38.79 61.26 38.46 61.2 38.14C60.46 34.67 59.7 31.08 58.65 27.44C54.82 14.1 43.43 13.16 41.19 12.95C39.35 12.77 30.56 12.65 23.01 12.59C19.44 12.55 16.15 12.54 14 12.53V19L0 9.5L14 0V6.5C16.5 6.52 37.7 6.62 41.61 6.94C41.66 6.94 41.71 6.95 41.76 6.95C44.04 7.17 48.3 7.15 52.76 9.9C53.01 10.06 53.26 10.22 53.51 10.38C53.77 10.55 54.02 10.72 54.27 10.9C54.53 11.09 54.79 11.28 55.05 11.48C55.34 11.71 55.63 11.94 55.91 12.19C56 12.26 56.09 12.34 56.18 12.42C56.2 12.43 56.21 12.45 56.23 12.46C56.3 12.52 56.38 12.59 56.45 12.66C56.5 12.7 56.54 12.74 56.59 12.78C56.62 12.81 56.66 12.84 56.69 12.86C56.71 12.88 56.72 12.9 56.74 12.92C56.76 12.93 56.77 12.94 56.79 12.96C56.81 12.97 56.82 12.99 56.84 13C56.97 13.12 57.09 13.24 57.22 13.37C60.59 16.63 63.01 20.8 64.44 25.78C64.89 27.34 65.28 28.87 65.64 30.39H65.65Z" fill="white"/>
<path d="M107.32 49.82C106.19 54.69 103.46 57.9 101.08 59.86C97.58 62.75 92.92 64.47 88.17 64.66H87.82C85.59 64.66 83.52 64.5 81.62 64.19C79.86 63.86 77.97 63.29 76.03 62.34C72.51 60.62 69.56 57.99 67.2 54.49C66.79 53.87 66.39 53.22 66.01 52.55C65.26 51.23 64.59 49.8 63.99 48.26C65.13 45.95 66.15 43.48 67.17 40.88C67.94 43.59 70.06 47.7 70.45 48.47C70.53 48.62 70.6 48.77 70.68 48.92C73.37 54.08 76.89 56.58 80.38 57.77H80.39C80.88 57.94 81.37 58.08 81.86 58.2C82.61 58.38 83.36 58.51 84.09 58.6H84.1C85.22 58.74 86.29 58.78 87.29 58.78C89.31 58.78 91.31 58.41 93.15 57.72C94.72 57.13 96.17 56.31 97.41 55.29C98.02 54.79 98.57 54.24 99.06 53.66C99.14 53.56 99.22 53.46 99.3 53.36C99.38 53.24 99.46 53.11 99.54 52.98C99.88 52.4 100.18 51.81 100.44 51.2C100.64 50.78 100.84 50.33 101.03 49.82H107.32Z" fill="white"/>
<path d="M214.43 64.61H208V21.51H214.41V28.32C214.49 28.34 214.57 28.36 214.65 28.38C214.77 28.23 214.9 28.08 215.02 27.93C218.28 23.58 222.55 21.53 227.72 21.51C228.28 21.51 228.85 21.53 229.42 21.57C231.84 21.76 234.17 22.26 236.32 23.46C239.5 25.23 241.34 28.02 242.35 31.43C243.11 33.97 243.29 36.58 243.29 39.21C243.29 47.3 243.29 55.39 243.29 63.48V64.61H236.81V39.92C236.81 38.02 236.67 36.14 236.19 34.29C235.11 30.17 232.15 27.62 227.9 27.16C226.41 27 224.91 26.91 223.44 27.27C218.93 28.39 216.31 31.42 215.01 35.73C214.57 37.2 214.42 38.73 214.42 40.27C214.42 47.92 214.42 55.58 214.42 63.23V64.61H214.43Z" fill="white"/>
<path d="M151.95 54.01C151.8 52.71 151.65 51.4 151.34 50.13C150.35 46.11 147.8 43.53 143.87 42.3C143.48 42.18 143.09 42.05 142.7 41.92C143.08 41.63 143.43 41.53 143.77 41.42C147.74 40.1 150.62 37.55 152.09 33.62C153.72 29.25 153.45 19.45 151.57 15.22C149.95 11.59 147.02 9.33999 143.36 7.96999C140.38 6.84999 137.27 6.50999 134.12 6.49999C128.08 6.48999 122.05 6.48999 116.01 6.49999V12.41C116.23 12.36 116.44 12.31 116.64 12.31C122.65 12.31 128.67 12.28 134.68 12.37C136.27 12.39 138.51 12.57 139.51 12.97C146.51 15.77 146.74 22.13 146.74 25.82C146.74 28.23 146.45 29.81 145.94 31.75C145.1 34.92 140.89 39.47 134.7 39.89C128.59 40.3 116 39.89 116 39.89V44.97C116 44.97 127.75 44.93 133.15 44.97C134.6 44.98 136.07 44.75 137.5 45C141.45 45.7 144.11 48.3 145.08 52.3C145.23 52.93 145.35 53.58 145.41 54.24C145.72 57.25 147.08 61.99 148.12 63.88C148.39 64.38 148.73 64.61 149.33 64.6C151.19 64.56 153.05 64.59 154.91 64.58C155.13 64.58 155.36 64.5 155.68 64.44C154.06 62.27 152.28 56.95 151.95 54.01Z" fill="white"/>
<path d="M199.77 38.14C199.76 36.37 199.61 34.56 199.24 32.83C198.11 27.53 194.96 23.96 189.69 22.5C184.55 21.07 179.37 21.18 174.29 22.8C169.06 24.47 165.72 28.01 164.34 33.34C164.26 33.64 164.25 33.95 164.2 34.33C166.38 34.49 168.44 34.64 170.47 34.79C170.56 34.55 170.62 34.42 170.66 34.28C171.81 30.39 174.52 28.22 178.36 27.33C180.88 26.75 183.43 26.77 185.96 27.28C188.37 27.77 190.42 28.88 191.74 31.05C193.35 33.7 193.37 36.93 193.28 40C192.77 40 192.38 40 191.99 40C190.29 39.99 183.39 39.84 179.1 40.12C169.22 40.78 166.31 43.98 164.93 46.09C163.59 48.14 163.05 50.42 163 52.83C162.92 56.61 164.31 59.72 167.35 62.03C169.6 63.74 172.18 64.53 174.96 64.75C182.31 65.32 188.31 64.02 193.15 58.36C193.26 58.23 193.31 58.04 193.39 57.88C193.49 57.93 193.6 57.98 193.7 58.04V64.68H199.73C199.75 64.25 199.78 63.93 199.78 63.61C199.78 55.12 199.81 46.63 199.76 38.14H199.77ZM191.6 53.66C188.6 57.88 184.73 59.29 179.53 59.68C177.96 59.8 176.39 59.77 174.88 59.26C174.19 59.03 173.5 58.76 172.88 58.41C170.33 56.97 169.29 54.58 169.79 51.54C170.26 48.67 171.44 45.01 180.16 44.98C183.09 44.97 189.51 45.02 192.95 45.1C193.02 45.1 193.09 45.03 193.28 45.1C193.43 48.24 193.54 50.96 191.62 53.67L191.6 53.66Z" fill="white"/>
<path d="M108.13 45.08L80.82 45.09V40H101.48C101.22 37.08 100.6 34.37 99.11 31.93C99.03 31.79 98.95 31.66 98.86 31.53C98.29 30.82 97.64 30.17 96.91 29.57C95.62 28.53 94.12 27.69 92.5 27.09C90.59 26.38 88.52 26.01 86.44 26.01C84.72 26.01 82.8 26.13 80.82 26.6C76.74 27.57 72.42 30.05 69.24 36.07C68.72 37.06 68.23 38.14 67.77 39.33C67.74 39.42 67.7 39.51 67.67 39.6C67.5 40.03 67.34 40.46 67.17 40.88C66.15 43.48 65.13 45.95 63.99 48.25L63.78 48.67C62.02 52.12 59.98 55.16 57.27 57.62C52.07 62.36 44.74 64.58 34.22 64.61C33.53 64.61 32.81 64.62 32.09 64.62C24.29 64.62 14.88 64.5 14 64.49V71L0 61.5L14 52V59.52L14.02 58.46C14.08 58.47 18.05 58.52 23.01 58.55C26.59 58.58 30.69 58.6 34.2 58.59C43.26 58.56 49.13 56.89 53.22 53.17C56.81 49.9 59.06 45.07 61.4 39.11C61.65 38.47 61.9 37.83 62.15 37.17C62.81 35.44 63.56 33.84 64.41 32.37C64.8 31.68 65.21 31.02 65.65 30.39C68.09 26.81 71.14 24.13 74.79 22.37C76.88 21.36 78.92 20.77 80.82 20.43C82.9 20.06 84.81 19.98 86.44 19.98C91.66 19.98 96.86 21.78 100.71 24.9C103.72 27.35 107.94 32.16 108.13 42.67C108.14 43.36 108.13 45.08 108.13 45.08Z" fill="white"/>
<path d="M282.71 29.77V6.5H288.86V64.47H283.07V57.22C282.7 57.65 282.52 57.82 282.38 58.02C279.58 62.3 275.58 64.41 270.52 64.6C266.25 64.76 262.25 63.94 258.78 61.29C256.27 59.38 254.37 56.96 253.21 54.05C250.28 46.69 250.17 39.28 253.45 32.02C255.33 27.86 258.32 24.62 262.74 22.98C266.06 21.75 269.49 21.51 272.93 22.29C276.62 23.13 279.35 25.39 281.46 28.46C281.77 28.91 282.07 29.38 282.38 29.84C282.49 29.81 282.59 29.78 282.7 29.75L282.71 29.77ZM282.8 43.27C282.88 40.73 282.55 38.07 281.62 35.49C278.83 27.74 270.88 24.67 263.92 28.67C261.05 30.32 259.34 32.91 258.48 36.01C257.09 41.02 257.16 46.06 258.67 51.04C259.39 53.4 260.66 55.46 262.63 57.01C268.53 61.67 277.53 59.68 280.89 52.96C282.39 49.97 282.84 46.76 282.8 43.27Z" fill="white"/>
</svg>
